<?xml version="1.0" encoding="UTF-8"?>
<svg version="1.1" xmlns="http://www.w3.org/2000/svg" width="2100" height="2100">
<path d="M0 0 C1.85915108 1.387817 3.70394864 2.789371 5.53125 4.21875 C5.88316406 3.64125 6.23507812 3.06375 6.59765625 2.46875 C8.11879819 0.18107962 9.58912853 -1.83488809 11.53125 -3.78125 C15.21652513 -4.46833519 17.17468197 -4.5251744 20.46875 -2.71875 C22.22503173 0.48388139 21.99774427 2.60341944 21.53125 6.21875 C20.32701241 8.62317052 19.00120383 10.85673372 17.52734375 13.10546875 C16.28928906 15.73208673 16.64664642 16.51164227 17.53125 19.21875 C18.14064407 20.45638366 18.7972115 21.67159901 19.4921875 22.86328125 C19.88148438 23.54068359 20.27078125 24.21808594 20.671875 24.91601562 C21.28289062 25.96305664 21.28289062 25.96305664 21.90625 27.03125 C24.79622995 31.99548975 27.37217012 36.89069804 29.53125 42.21875 C30.46066406 42.03957031 31.39007812 41.86039063 32.34765625 41.67578125 C44.85652175 39.52357811 44.85652175 39.52357811 50.53125 43.21875 C52.09555248 46.34735495 51.88752284 48.77477925 51.53125 52.21875 C48.0328956 56.26372228 43.66076533 57.44371389 38.53125 58.21875 C37.21125 58.21875 35.89125 58.21875 34.53125 58.21875 C34.73621094 59.05277344 34.94117188 59.88679687 35.15234375 60.74609375 C37.40324114 70.14816754 38.60387283 78.80876749 38.78125 88.46875 C38.81351685 89.49802612 38.81351685 89.49802612 38.84643555 90.5480957 C38.8748202 94.93272083 38.41409101 97.84588966 35.53125 101.21875 C33.33984375 101.9609375 33.33984375 101.9609375 30.96875 102.09375 C30.18371094 102.15304687 29.39867187 102.21234375 28.58984375 102.2734375 C26.53125 102.21875 26.53125 102.21875 24.53125 101.21875 C24.49 102.311875 24.44875 103.405 24.40625 104.53125 C23.08072212 115.06079543 15.48709652 124.16141933 7.48046875 130.62109375 C2.68041186 134.30611362 -2.27087349 136.73243844 -7.84375 139.03125 C-8.71257812 139.41216797 -9.58140625 139.79308594 -10.4765625 140.18554688 C-19.88492059 144.15904722 -29.05123654 145.56537912 -39.21875 145.40625 C-40.01667969 145.40560547 -40.81460937 145.40496094 -41.63671875 145.40429688 C-46.34228118 145.36952671 -50.82756477 144.99434914 -55.46875 144.21875 C-55.46875 143.55875 -55.46875 142.89875 -55.46875 142.21875 C-56.75007813 142.11820313 -58.03140625 142.01765625 -59.3515625 141.9140625 C-64.62013999 141.32271258 -69.36597214 139.87403196 -74.34375 138.09375 C-75.22071533 137.78026611 -76.09768066 137.46678223 -77.0012207 137.14379883 C-92.77074985 131.30490971 -102.90781038 121.98143136 -110.03515625 106.72265625 C-112.12349108 101.61847002 -113.50010701 96.64178646 -114.46875 91.21875 C-114.77425781 89.51138672 -114.77425781 89.51138672 -115.0859375 87.76953125 C-116.61914396 77.88770058 -116.67442905 68.19418411 -116.46875 58.21875 C-117.5825 58.115625 -118.69625 58.0125 -119.84375 57.90625 C-121.04 57.679375 -122.23625 57.4525 -123.46875 57.21875 C-125.76227146 53.7784678 -125.54068057 52.33350139 -124.91845703 48.36376953 C-124.21599977 45.01317804 -123.13972007 41.84009937 -121.90625 38.65625 C-121.64376465 37.97224121 -121.3812793 37.28823242 -121.11083984 36.58349609 C-116.55296224 25.06314962 -110.83194137 14.44763216 -102.46875 5.21875 C-101.71980469 4.37699219 -100.97085937 3.53523437 -100.19921875 2.66796875 C-72.35364438 -26.97699654 -30.59847795 -22.07738282 0 0 Z " fill="#030303" transform="translate(1146.46875,652.78125)"/>
<path d="M0 0 C15.11919406 12.63693831 24.29580647 30.46335978 30 49.0625 C30.22010742 49.76479736 30.44021484 50.46709473 30.66699219 51.19067383 C31.88485166 55.43533228 32.55882727 58.80456254 31 63 C27.9375 64.875 27.9375 64.875 25 66 C25.16048828 67.40185547 25.16048828 67.40185547 25.32421875 68.83203125 C26.34332449 79.9983619 25.2284084 90.04114664 23 101 C22.85933105 101.7228418 22.71866211 102.44568359 22.57373047 103.19042969 C20.03719878 115.91717618 15.82187594 128.07275514 5.25390625 136.37109375 C-4.32461261 142.4102061 -14.27396698 146.1375979 -25.3125 148.375 C-26.54758301 148.62648804 -26.54758301 148.62648804 -27.80761719 148.88305664 C-45.06259413 152.09800062 -67.76835537 147.51792041 -82.578125 137.859375 C-93.21028837 129.55118177 -96.86708017 121.15300562 -99 108 C-101.0745356 107.8509288 -101.0745356 107.8509288 -103 109 C-106.73671591 109.34599221 -109.11909553 109.53317902 -112.375 107.5625 C-116.40453957 101.20822606 -114.95685042 92.71693552 -114.1875 85.5625 C-114.10435547 84.68529297 -114.02121094 83.80808594 -113.93554688 82.90429688 C-113.32411963 76.8480431 -112.29566196 70.94597738 -111 65 C-112.216875 64.896875 -113.43375 64.79375 -114.6875 64.6875 C-119.48876545 64.09265295 -122.57013629 62.42986371 -126 59 C-126.41652031 55.25131724 -126.4979164 52.88266999 -124.625 49.5625 C-120.54482256 47.13382295 -116.63094713 47.49030456 -112 48 C-108.375 49 -108.375 49 -106 50 C-105.67 48.845 -105.34 47.69 -105 46.5 C-103.1821587 40.90390032 -100.43828352 35.81253478 -97.60546875 30.67382812 C-96.04389512 27.72066766 -94.96319683 25.60768017 -95.16796875 22.2265625 C-95.87877732 20.32439873 -96.70938266 18.46773346 -97.5625 16.625 C-99.11044636 12.7214831 -99.47960988 10.15661898 -99 6 C-97.875 4.0625 -97.875 4.0625 -96 3 C-93.1875 2.3125 -93.1875 2.3125 -90 3 C-87.64845179 5.44752977 -85.80487627 8.13267883 -84 11 C-82.700625 9.5459375 -82.700625 9.5459375 -81.375 8.0625 C-59.62464147 -13.46948144 -25.19180442 -18.12457338 0 0 Z " fill="#030303" transform="translate(896,642)"/>
<path d="M0 0 C17.21607692 13.77286154 23.33997938 33.93286279 25.8125 55.25 C25.97247986 58.70947568 25.99752658 62.16221781 26 65.625 C26.01224609 66.51960937 26.02449219 67.41421875 26.03710938 68.3359375 C26.0592052 78.4705537 24.53308206 87.16595554 17.3984375 94.75390625 C10.3217559 101.09264512 1.94528576 102.57904103 -7.22265625 102.46875 C-19.31316761 101.57669646 -34.51963191 99.13071238 -43.5078125 90.34765625 C-49.49492693 82.87072498 -51.43706045 73.46346225 -53.1875 64.25 C-53.373125 63.30511719 -53.55875 62.36023438 -53.75 61.38671875 C-56.28517859 43.21039366 -53.76409961 22.59670321 -43 7.375 C-31.99123032 -5.81159151 -14.72470322 -8.08415079 0 0 Z " fill="#AEE7FD" transform="translate(1115.1875,680.75)"/>
<path d="M0 0 C10.8908485 6.98658206 14.25422693 20.06667517 17 32 C20.45874205 50.92519233 18.94305915 74.5515316 8.6484375 91.18359375 C2.87951537 98.06192398 -8.38991679 100.71433147 -17 102 C-19.9385575 102.20979144 -22.86721122 102.27601831 -25.8125 102.3125 C-26.58142578 102.34150391 -27.35035156 102.37050781 -28.14257812 102.40039062 C-34.98514819 102.47545679 -39.90221421 100.51112547 -45.20703125 96.2109375 C-45.73683594 95.60507812 -46.26664063 94.99921875 -46.8125 94.375 C-47.35519531 93.78460937 -47.89789062 93.19421875 -48.45703125 92.5859375 C-53.23326511 84.58121138 -53.48593318 76.04047067 -53.375 66.9375 C-53.36629883 65.74882324 -53.35759766 64.56014648 -53.34863281 63.33544922 C-53.19297396 53.93595118 -52.26389642 45.11413471 -50 36 C-49.58234375 34.28683594 -49.58234375 34.28683594 -49.15625 32.5390625 C-45.82472187 20.447913 -39.7586324 6.6350341 -28.8203125 -0.40234375 C-18.58799433 -5.66842691 -10.25367886 -4.83935311 0 0 Z " fill="#AEE7FD" transform="translate(882,674)"/>
<path d="M0 0 C1.85915108 1.387817 3.70394864 2.789371 5.53125 4.21875 C5.88316406 3.64125 6.23507812 3.06375 6.59765625 2.46875 C8.11879819 0.18107962 9.58912853 -1.83488809 11.53125 -3.78125 C15.21652513 -4.46833519 17.17468197 -4.5251744 20.46875 -2.71875 C22.22503173 0.48388139 21.99774427 2.60341944 21.53125 6.21875 C20.32701241 8.62317052 19.00120383 10.85673372 17.52734375 13.10546875 C16.28928906 15.73208673 16.64664642 16.51164227 17.53125 19.21875 C18.14064407 20.45638366 18.7972115 21.67159901 19.4921875 22.86328125 C19.88148438 23.54068359 20.27078125 24.21808594 20.671875 24.91601562 C21.28289062 25.96305664 21.28289062 25.96305664 21.90625 27.03125 C24.79622995 31.99548975 27.37217012 36.89069804 29.53125 42.21875 C30.46066406 42.03957031 31.39007812 41.86039063 32.34765625 41.67578125 C44.85652175 39.52357811 44.85652175 39.52357811 50.53125 43.21875 C52.09555248 46.34735495 51.88752284 48.77477925 51.53125 52.21875 C48.0328956 56.26372228 43.66076533 57.44371389 38.53125 58.21875 C37.21125 58.21875 35.89125 58.21875 34.53125 58.21875 C34.73621094 59.05277344 34.94117188 59.88679687 35.15234375 60.74609375 C37.40324114 70.14816754 38.60387283 78.80876749 38.78125 88.46875 C38.81351685 89.49802612 38.81351685 89.49802612 38.84643555 90.5480957 C38.8748202 94.93272083 38.41409101 97.84588966 35.53125 101.21875 C33.33984375 101.9609375 33.33984375 101.9609375 30.96875 102.09375 C30.18371094 102.15304687 29.39867187 102.21234375 28.58984375 102.2734375 C26.53125 102.21875 26.53125 102.21875 24.53125 101.21875 C24.53125 100.55875 24.53125 99.89875 24.53125 99.21875 C23.87125 99.21875 23.21125 99.21875 22.53125 99.21875 C21.26703027 96.69031054 21.20320659 94.60630388 20.953125 91.78515625 C19.14341974 72.77019701 16.59042512 55.26342022 7.53125 38.21875 C7.01949219 37.21585938 6.50773437 36.21296875 5.98046875 35.1796875 C-3.1412015 18.32963316 -16.97810972 6.64943802 -35.12890625 0.6015625 C-40.62170211 -1.00683372 -45.77457702 -1.22802529 -51.46875 -1.15625 C-52.38914062 -1.16785156 -53.30953125 -1.17945313 -54.2578125 -1.19140625 C-67.37274325 -1.13599105 -76.396274 3.51789835 -85.84765625 12.47265625 C-95.77672895 22.95430343 -102.22024829 35.11948673 -108.01928711 48.19848633 C-108.41124268 49.06497803 -108.80319824 49.93146973 -109.20703125 50.82421875 C-109.54774658 51.59918701 -109.88846191 52.37415527 -110.23950195 53.17260742 C-111.68328239 55.5758495 -113.08650272 56.76029506 -115.46875 58.21875 C-119.07236708 58.74427749 -120.79051494 58.63612542 -123.90625 56.71875 C-126.13087463 53.15935059 -125.2580961 50.14906352 -124.46875 46.21875 C-123.68854853 43.62437765 -122.88056552 41.17116618 -121.90625 38.65625 C-121.64376465 37.97224121 -121.3812793 37.28823242 -121.11083984 36.58349609 C-116.55296224 25.06314962 -110.83194137 14.44763216 -102.46875 5.21875 C-101.71980469 4.37699219 -100.97085937 3.53523437 -100.19921875 2.66796875 C-72.35364438 -26.97699654 -30.59847795 -22.07738282 0 0 Z " fill="#010101" transform="translate(1146.46875,652.78125)"/>
<path d="M0 0 C15.11919406 12.63693831 24.29580647 30.46335978 30 49.0625 C30.22010742 49.76479736 30.44021484 50.46709473 30.66699219 51.19067383 C31.88904024 55.44993092 32.31841451 58.73416843 31 63 C28 65 28 65 24.5 64.9375 C21 64 21 64 19.484375 61.91015625 C17.74630672 58.50262765 16.23087606 55.02396006 14.75 51.5 C7.61639849 34.96215458 -1.4564526 15.94461292 -18.375 7.5 C-30.20683338 3.32733149 -44.64477701 5.09458415 -55.7578125 10.2890625 C-73.84574296 19.50552843 -84.40300376 36.97418407 -91.1875 55.625 C-95.3938453 69.29110897 -97.467131 83.22585638 -98.14111328 97.4855957 C-98.56370076 104.3788282 -98.56370076 104.3788282 -100.84375 107.625 C-104.05630509 109.67358585 -106.27828702 109.53167328 -110 109 C-112.375 107.5625 -112.375 107.5625 -114 105 C-115.42169347 98.51475247 -114.89056115 92.10049038 -114.1875 85.5625 C-114.10435547 84.68529297 -114.02121094 83.80808594 -113.93554688 82.90429688 C-113.32411963 76.8480431 -112.29566196 70.94597738 -111 65 C-112.216875 64.896875 -113.43375 64.79375 -114.6875 64.6875 C-119.48876545 64.09265295 -122.57013629 62.42986371 -126 59 C-126.41652031 55.25131724 -126.4979164 52.88266999 -124.625 49.5625 C-120.54482256 47.13382295 -116.63094713 47.49030456 -112 48 C-108.375 49 -108.375 49 -106 50 C-105.67 48.845 -105.34 47.69 -105 46.5 C-103.1821587 40.90390032 -100.43828352 35.81253478 -97.60546875 30.67382812 C-96.04389512 27.72066766 -94.96319683 25.60768017 -95.16796875 22.2265625 C-95.87877732 20.32439873 -96.70938266 18.46773346 -97.5625 16.625 C-99.11044636 12.7214831 -99.47960988 10.15661898 -99 6 C-97.875 4.0625 -97.875 4.0625 -96 3 C-93.1875 2.3125 -93.1875 2.3125 -90 3 C-87.64845179 5.44752977 -85.80487627 8.13267883 -84 11 C-82.700625 9.5459375 -82.700625 9.5459375 -81.375 8.0625 C-59.62464147 -13.46948144 -25.19180442 -18.12457338 0 0 Z " fill="#010101" transform="translate(896,642)"/>
<path d="M0 0 C20.65607398 16.29124883 33.09921864 39.56770358 36.45751953 65.53808594 C37.43542218 74.01324224 38.25215947 82.50149881 39 91 C39.66 91 40.32 91 41 91 C41.58609318 100.18994106 36.83637818 108.86245006 31.125 115.9375 C25.72985677 121.6203842 19.51427435 126.59543221 12 129 C11.01 128.67 10.02 128.34 9 128 C9.43570312 127.63390625 9.87140625 127.2678125 10.3203125 126.890625 C19.27539032 118.74964516 24.34691836 106.8026907 25.14794922 94.77929688 C26.22635502 68.18935095 21.94820964 38.88920766 3.984375 18.10546875 C-3.70237762 9.94964265 -13.80109183 2.12024544 -25.46484375 1.7265625 C-41.24038756 1.31206498 -52.32179379 3.92898163 -64.0546875 14.92578125 C-78.40771874 29.73919273 -80.16199676 49.76478132 -80.25 69.3125 C-80.270625 70.44623047 -80.29125 71.57996094 -80.3125 72.74804688 C-80.38938727 89.61519075 -75.25328216 111.31949776 -63.21875 123.85546875 C-61.46488051 125.37959153 -61.46488051 125.37959153 -59 127 C-61.70538976 128.06420545 -62.86465534 128.04564409 -65.6640625 127.1015625 C-79.88343433 120.01063565 -88.89679778 110.36050681 -94.75 95.5625 C-98.74755412 83.49067815 -100.20073438 70.73881652 -100.5 58.0625 C-100.5306958 57.32354492 -100.5613916 56.58458984 -100.59301758 55.82324219 C-100.59434982 52.00238256 -100.28585419 50.31788539 -97.69921875 47.44140625 C-96.80847656 46.63574219 -95.91773438 45.83007812 -95 45 C-93.65610875 42.62462509 -92.45130926 40.33939362 -91.3125 37.875 C-89.68689055 34.45303876 -88.10865662 31.16298492 -86 28 C-85.70222656 27.23042969 -85.40445312 26.46085938 -85.09765625 25.66796875 C-79.14232069 11.19290048 -66.84659629 -1.30811932 -52.95703125 -8.23828125 C-36.10773798 -14.79638941 -14.42494204 -9.6595594 0 0 Z " fill="#FAFAFA" transform="translate(1130,661)"/>
<path d="M0 0 C16.81088616 12.6363708 26.0454526 31.71711726 33.53515625 50.9375 C34.72476644 54.06567147 34.72476644 54.06567147 37.12890625 55.5 C39 57 39 57 39.71484375 60.125 C40.34611077 71.11126119 39.18969199 81.23154593 37 92 C36.85933105 92.7228418 36.71866211 93.44568359 36.57373047 94.19042969 C34.00685551 107.06941991 29.71859365 119.38919822 18.8671875 127.6171875 C18.20976563 128.03226563 17.55234375 128.44734375 16.875 128.875 C16.21242188 129.30554688 15.54984375 129.73609375 14.8671875 130.1796875 C13 131 13 131 10 130 C10.75152344 129.319375 11.50304687 128.63875 12.27734375 127.9375 C15.18350015 125.0221307 16.90694686 121.73622644 18.5625 118 C18.85987061 117.34209473 19.15724121 116.68418945 19.46362305 116.00634766 C28.9978036 94.40177498 30.68850921 70.08869629 26 47 C25.80535156 45.98035156 25.61070312 44.96070313 25.41015625 43.91015625 C22.61511026 31.0595602 16.5860613 19.26631842 5.7734375 11.375 C-2.73042967 6.3267679 -12.11637746 3.71696198 -22 5 C-27.92593289 6.66747029 -33.07307283 9.30480462 -38 13 C-38.969375 13.70125 -39.93875 14.4025 -40.9375 15.125 C-57.67074326 29.54870708 -63.23838509 55.00655363 -65 76 C-66.03353598 94.01610777 -66.77918727 113.05917814 -55 128 C-52.81133759 130.23139117 -50.51750877 132.15301415 -48 134 C-46.7934375 134.928125 -46.7934375 134.928125 -45.5625 135.875 C-44.7890625 136.431875 -44.7890625 136.431875 -44 137 C-57.83488994 135.31453118 -68.49416088 130.22873756 -77.90625 119.91015625 C-87.14014555 107.75672019 -86.20478163 89.5211611 -84.4609375 75.08984375 C-81.49560156 53.67400684 -75.3153865 34.20579508 -62 17 C-61.02740234 15.73349609 -61.02740234 15.73349609 -60.03515625 14.44140625 C-47.26073394 -1.04986661 -18.51251508 -12.48736262 0 0 Z " fill="#F9F9F9" transform="translate(882,651)"/>
<path d="M0 0 C15.25829381 12.20663505 21.9164867 29.22578254 24.8125 48.25 C24.85606764 50.24952541 24.8697055 52.25081828 24.8125 54.25 C23.8225 53.198125 23.8225 53.198125 22.8125 52.125 C11.554846 41.02413784 -0.8411975 37.55482521 -16.1875 36.25 C-16.28546875 35.36957031 -16.3834375 34.48914063 -16.484375 33.58203125 C-16.63390625 32.42058594 -16.7834375 31.25914062 -16.9375 30.0625 C-17.07671875 28.91394531 -17.2159375 27.76539063 -17.359375 26.58203125 C-18.28388871 22.86217183 -19.55613069 20.99686834 -22.1875 18.25 C-25.89415983 16.39667009 -30.15136771 16.65664291 -34.1875 17.25 C-37.44453014 20.1892711 -39.05201613 23.00654646 -39.3203125 27.44921875 C-39.31773438 28.27035156 -39.31515625 29.09148438 -39.3125 29.9375 C-39.31507812 30.82695313 -39.31765625 31.71640625 -39.3203125 32.6328125 C-39.198974 35.02389469 -38.77120152 37.00548923 -38.1875 39.3125 C-38.1875 44.69128879 -40.46452989 46.19233718 -44.109375 49.89453125 C-49.17285848 55.63378038 -50.63598967 62.80461057 -51.1875 70.25 C-51.5175 70.25 -51.8475 70.25 -52.1875 70.25 C-56.5896051 50.20469997 -55.47135005 27.61227872 -44.66015625 9.72265625 C-39.77197262 2.81018951 -33.23108977 -1.79799505 -25.0625 -4.125 C-15.83726469 -5.61294118 -8.24177959 -4.5248986 0 0 Z " fill="#74A8BA" transform="translate(1115.1875,680.75)"/>
<path d="M0 0 C10.8973185 6.99073262 14.24395737 20.065047 17 32 C18.13719841 37.99486075 18.11649386 43.86111428 18.0625 49.9375 C18.05798828 50.90751953 18.05347656 51.87753906 18.04882812 52.87695312 C18.0371315 55.2513676 18.02074086 57.62565021 18 60 C15.78402303 57.85104763 14.259925 55.88303513 12.75 53.1875 C8.40465471 46.20938668 4.08687338 43.24909184 -3.75 40.75 C-9.60362345 38.6962144 -9.60362345 38.6962144 -11.36328125 35.60546875 C-12.0625 32.9375 -12.0625 32.9375 -12.53125 30.3125 C-13.15532386 27.23373563 -14.51183546 25.84605756 -17 24 C-20.13871188 22.43064406 -22.53855822 22.64798897 -26 23 C-30.13381473 26.12332669 -31.82447655 29.00402533 -33 34 C-32.979375 35.299375 -32.95875 36.59875 -32.9375 37.9375 C-33.14453125 40 -33.14453125 40 -34 42 C-36.58076507 43.9968614 -39.28223616 45.52594534 -42.125 47.125 C-45.9295889 49.60625363 -48.18343776 52.58822779 -50.7578125 56.27734375 C-51.16773438 56.84582031 -51.57765625 57.41429687 -52 58 C-52.33 58 -52.66 58 -53 58 C-52.23057754 38.37972732 -47.40745839 17.30096978 -33.2421875 2.890625 C-22.83320005 -5.88629125 -11.81756902 -5.5774508 0 0 Z " fill="#74A8BB" transform="translate(882,674)"/>
<path d="M0 0 C4.15163853 0.69086364 5.72575871 2.2837637 8.51171875 5.41796875 C11.20810801 10.9413682 11.27671972 16.39163457 10.51171875 22.41796875 C8.87408583 26.66769384 6.55146588 29.51503045 3.13671875 32.48046875 C-0.52955867 33.78985354 -2.7660938 33.50078692 -6.48828125 32.41796875 C-10.93027306 28.34614293 -13.1008453 22.80541546 -13.77734375 16.890625 C-13.97725357 10.84789621 -13.0502781 6.61662949 -9.18359375 1.7890625 C-6.33617889 -0.51380067 -3.53184818 -0.10827564 0 0 Z " fill="#FEFEFE" transform="translate(1088.48828125,696.58203125)"/>
<path d="M0 0 C4.04021187 1.40937623 5.48404593 3.47944629 7.3125 7.1875 C10.01211263 13.96945369 9.54748081 19.46080403 6.94921875 26.23828125 C5.86111559 28.2577649 4.76763665 29.53846629 3 31 C-0.91631517 32.03449835 -3.30711917 32.21737438 -7.1875 31 C-10.74527393 28.47002743 -12.74977044 26.14624155 -14 22 C-14.73989478 15.3243201 -15.14456087 8.62476118 -11 3 C-7.68862338 -0.54790352 -4.70154676 -0.49489966 0 0 Z " fill="#FDFEFE" transform="translate(863,696)"/>
<path d="M0 0 C4.875 4.625 4.875 4.625 6 8 C5.01 8 4.02 8 3 8 C0.89229241 5.11165997 0 3.61537605 0 0 Z " fill="#D9D9D9" transform="translate(898,670)"/>
</svg>
