<?xml version="1.0" encoding="UTF-8"?>
<svg version="1.1" xmlns="http://www.w3.org/2000/svg" width="2100" height="2100">
<path d="M0 0 C2.05594735 0.87383539 2.05594735 0.87383539 4.515625 -0.640625 C5.44503906 -1.28644531 6.37445312 -1.93226563 7.33203125 -2.59765625 C8.25886719 -3.23058594 9.18570312 -3.86351562 10.140625 -4.515625 C11.04941406 -5.14082031 11.95820312 -5.76601563 12.89453125 -6.41015625 C17.53181535 -9.42742844 17.53181535 -9.42742844 20.51953125 -9.28515625 C23.20044751 -8.29745026 24.36063004 -7.83210552 25.89453125 -5.41015625 C26.58203125 -2.16015625 26.58203125 -2.16015625 25.89453125 1.58984375 C23.49578429 4.29319349 20.7625147 6.40718164 17.89453125 8.58984375 C17.23453125 9.24984375 16.57453125 9.90984375 15.89453125 10.58984375 C16.71695312 11.27949219 17.539375 11.96914063 18.38671875 12.6796875 C21.32998849 15.1529378 24.25965591 17.64179984 27.18457031 20.13671875 C28.67176354 21.40053572 30.16900811 22.65250615 31.66796875 23.90234375 C39.49820812 30.62103494 48.18933636 39.34874881 50.89453125 49.58984375 C51.05768577 52.76591842 50.86951577 55.55329556 49.89453125 58.58984375 C46.82129703 61.82482714 44.07466232 63.39834575 39.58203125 63.79296875 C32.54249906 63.91575129 26.5852709 62.69658331 19.89453125 60.58984375 C19.7337207 61.17362793 19.57291016 61.75741211 19.40722656 62.35888672 C18.65885317 65.06253238 17.90173669 67.76365895 17.14453125 70.46484375 C16.76554687 71.8415625 16.76554687 71.8415625 16.37890625 73.24609375 C14.60498935 79.54349873 12.44563692 85.56576303 9.89453125 91.58984375 C10.69890625 91.77546875 11.50328125 91.96109375 12.33203125 92.15234375 C20.73185099 95.5417447 26.7518547 101.58560084 30.89453125 109.58984375 C32.96958815 116.0840033 32.71460206 122.57886597 29.89453125 128.77734375 C24.73255479 138.00238852 16.0921861 143.29018619 6.1940918 146.45263672 C-1.14991849 148.39636193 -7.95976803 149.06758124 -15.54296875 148.96484375 C-16.63971924 148.95396729 -17.73646973 148.94309082 -18.86645508 148.93188477 C-34.633414 148.62144238 -49.26672929 144.55225194 -61.10546875 133.58984375 C-62.96875 131.0546875 -62.96875 131.0546875 -64.41796875 128.52734375 C-64.90910156 127.69074219 -65.40023438 126.85414063 -65.90625 125.9921875 C-68.17856247 121.44016089 -68.20328654 117.67636898 -68.10546875 112.58984375 C-69.14445312 112.03296875 -70.1834375 111.47609375 -71.25390625 110.90234375 C-85.99581407 102.88801326 -98.79348304 94.77853169 -104.37890625 78.16796875 C-109.41291475 60.30535796 -106.02329075 39.58825287 -103.10546875 21.58984375 C-103.60046875 22.08484375 -103.60046875 22.08484375 -104.10546875 22.58984375 C-106.1015625 22.7578125 -106.1015625 22.7578125 -108.54296875 22.77734375 C-109.34605469 22.79152344 -110.14914062 22.80570313 -110.9765625 22.8203125 C-113.10546875 22.58984375 -113.10546875 22.58984375 -115.10546875 20.58984375 C-115.73046875 17.96484375 -115.73046875 17.96484375 -115.10546875 14.58984375 C-105.00274338 0.13564329 -82.80853795 -8.81454593 -66.28149414 -11.94506836 C-44.37639479 -15.15278719 -18.842987 -12.6202566 0 0 Z " fill="#010101" transform="translate(1148.10546875,679.41015625)"/>
<path d="M0 0 C21.96713868 -0.58906294 40.84509683 7.04848459 56.76171875 22.02734375 C57.4784375 22.72988281 58.19515625 23.43242188 58.93359375 24.15625 C59.5059375 24.70410156 60.07828125 25.25195312 60.66796875 25.81640625 C63.27273535 28.5601913 63.92757376 30.09605009 64.30859375 33.90625 C63.93359375 37.15625 63.93359375 37.15625 62.93359375 39.15625 C56.18359375 39.28125 56.18359375 39.28125 53.93359375 38.15625 C54.06991211 38.98310303 54.06991211 38.98310303 54.20898438 39.82666016 C60.30672288 77.74990307 60.30672288 77.74990307 53.93359375 93.15625 C53.67835938 93.85234375 53.423125 94.5484375 53.16015625 95.265625 C50.03616044 102.6600371 43.52386723 108.73015531 36.93359375 113.15625 C36.27359375 113.15625 35.61359375 113.15625 34.93359375 113.15625 C35.09085938 113.71054687 35.248125 114.26484375 35.41015625 114.8359375 C37.12260443 122.42693914 36.3805992 129.11039599 32.52734375 135.875 C25.41067737 146.0616009 13.09340208 151.007869 1.28515625 153.625 C-17.85345534 156.65862608 -37.98386023 155.59996884 -54.73828125 144.92578125 C-60.32427445 140.68005152 -65.89987065 135.30128057 -67.06640625 128.15625 C-67.79704701 121.19159377 -67.06263092 115.9868073 -63.06640625 110.15625 C-59.31474018 105.77930626 -54.71836709 102.5153582 -50.06640625 99.15625 C-50.60910156 98.01027344 -51.15179687 96.86429688 -51.7109375 95.68359375 C-52.43365906 94.15367668 -53.15631164 92.62372703 -53.87890625 91.09375 C-54.41354492 89.96549805 -54.41354492 89.96549805 -54.95898438 88.81445312 C-57.09007015 84.29811537 -59.12873961 79.75897234 -61.06640625 75.15625 C-62.55140625 75.65125 -62.55140625 75.65125 -64.06640625 76.15625 C-66.51998635 76.35366449 -68.98069944 76.46840287 -71.44140625 76.53125 C-72.74851562 76.58023438 -74.055625 76.62921875 -75.40234375 76.6796875 C-79.93794099 76.03174504 -81.30322025 74.73547972 -84.06640625 71.15625 C-85.73456048 65.36677357 -85.06072166 61.37574755 -82.60546875 55.9140625 C-76.71662695 45.36197542 -68.17395819 36.8887345 -59.53662109 28.578125 C-57.35180721 26.46514658 -55.20961557 24.31134403 -53.06640625 22.15625 C-53.62328125 21.929375 -54.18015625 21.7025 -54.75390625 21.46875 C-57.7033538 19.79473923 -59.74163315 17.60668651 -62.06640625 15.15625 C-62.39640625 14.82625 -62.72640625 14.49625 -63.06640625 14.15625 C-63.35501007 10.90945705 -63.34717187 8.74897742 -61.94140625 5.78125 C-60.06640625 4.15625 -60.06640625 4.15625 -57.26953125 3.80859375 C-53.30689992 4.23868422 -51.88778224 5.46602596 -48.94140625 8.09375 C-45.03954984 11.84929304 -45.03954984 11.84929304 -40.06640625 13.15625 C-37.66209023 12.01316609 -35.46798686 10.82592542 -33.19140625 9.46875 C-22.7515894 3.5714391 -11.96289485 0.60957426 0 0 Z " fill="#010101" transform="translate(853.06640625,662.84375)"/>
<path d="M0 0 C1.23145752 0.00612305 2.46291504 0.01224609 3.73168945 0.01855469 C12.55651933 0.17051546 19.90330213 1.10150173 28.125 4.4375 C29.45337891 4.76621094 29.45337891 4.76621094 30.80859375 5.1015625 C33.50275753 5.88610299 35.05595035 6.53287814 37.125 8.4375 C39.24407642 12.9610299 40.20743016 17.54548399 41.125 22.4375 C41.34800781 23.48550781 41.57101562 24.53351562 41.80078125 25.61328125 C45.7879894 46.95976297 44.99596088 77.18652697 32.484375 95.68359375 C29.55659202 99.46110685 26.76432493 102.89105836 22.125 104.4375 C4.75081631 106.63630748 -14.92511934 97.89504621 -28.875 88.4375 C-36.99915369 82.06561475 -40.52228071 74.57657356 -41.875 64.4375 C-42.87755331 48.08816912 -40.35070805 31.71524164 -36.6875 15.8125 C-36.44833862 14.63143677 -36.44833862 14.63143677 -36.2043457 13.42651367 C-35.43727911 10.39069624 -34.77101298 8.19494254 -32.33740234 6.13769531 C-30.22131635 4.97650202 -28.1698887 4.18860069 -25.875 3.4375 C-24.98256592 3.14528564 -24.09013184 2.85307129 -23.1706543 2.55200195 C-15.44014229 0.34208735 -8.00660682 -0.06782942 0 0 Z " fill="#D9FCD2" transform="translate(1097.875,679.5625)"/>
<path d="M0 0 C9.23293743 7.65204599 10.33207234 27.67031226 11.51416016 38.90014648 C12.63106439 51.97825259 12.99456372 64.17513416 5.58984375 75.5 C-6.68549227 87.24162576 -23.29523229 93.9567686 -40.22265625 94.9375 C-45.74027477 94.72762739 -48.84252389 93.42396592 -52.640625 89.41796875 C-63.7905636 74.71911857 -63.4801991 54.89606517 -63.52539062 37.2355957 C-63.53509627 34.95161494 -63.56622708 32.66853675 -63.59765625 30.38476562 C-63.76680592 6.99946887 -63.76680592 6.99946887 -57.84765625 0.625 C-39.28649418 -6.53895729 -18.4261939 -9.81561815 0 0 Z " fill="#D9FCD2" transform="translate(885.28515625,681.75)"/>
<path d="M0 0 C8.87177041 8.67798897 13.51027114 19.73380188 14.265625 32.06640625 C13.45347835 44.0933426 8.58740902 55.96334651 4 67 C4.804375 67.185625 5.60875 67.37125 6.4375 67.5625 C14.83731974 70.95190095 20.85732345 76.99575709 25 85 C27.0750569 91.49415955 26.82007081 97.98902222 24 104.1875 C18.83802354 113.41254477 10.19765485 118.70034244 0.29956055 121.86279297 C-7.04444974 123.80651818 -13.85429928 124.47773749 -21.4375 124.375 C-22.53425049 124.36412354 -23.63100098 124.35324707 -24.76098633 124.34204102 C-40.52794525 124.03159863 -55.16126054 119.96240819 -67 109 C-68.86328125 106.46484375 -68.86328125 106.46484375 -70.3125 103.9375 C-70.80363281 103.10089844 -71.29476563 102.26429688 -71.80078125 101.40234375 C-74.06793689 96.86064759 -74.09733857 93.06160557 -74 88 C-71.19379378 86.59689689 -69.54126421 87.64353408 -66.6940918 88.58911133 C-65.9906665 88.82782959 -65.28724121 89.06654785 -64.5625 89.3125 C-51.35949932 93.59467371 -37.2418975 97.02099223 -24 91 C-10.17340768 82.74431623 -6.01188368 68.81543893 -2 54 C0.28292559 42.20665829 0.2420504 30.51820492 0.125 18.5625 C0.11493873 16.75195814 0.10581851 14.94141079 0.09765625 13.13085938 C0.07591823 8.75376742 0.04156645 4.3769467 0 0 Z " fill="#E9C4C3" transform="translate(1154,704)"/>
<path d="M0 0 C0.33 0 0.66 0 1 0 C0.83886719 1.15242187 0.67773438 2.30484375 0.51171875 3.4921875 C-0.20284237 9.96497299 -0.18603616 16.45005277 -0.18530273 22.95410156 C-0.18747451 25.09981587 -0.20564554 27.24500214 -0.22460938 29.390625 C-0.30353251 48.23876887 1.70393924 68.75603585 14.3125 83.75 C23.22659979 91.21296727 30.39361856 92.81508712 42 92 C52.93441111 89.9963121 65.68832238 86.20778508 75 80 C75.99 80 76.98 80 78 80 C80.15689528 86.47068583 79.83156719 93.04525712 77 99.25 C70.6532333 110.39210154 59.25315038 115.38432437 47.3125 118.8125 C27.65830173 123.16857561 5.59680013 121.77134847 -11.671875 110.76953125 C-17.2578682 106.52380152 -22.8334644 101.14503057 -24 94 C-24.73064076 87.03534377 -23.99622467 81.8305573 -20 76 C-16.24833393 71.62305626 -11.65196084 68.3591082 -7 65 C-7.55429687 63.87722656 -8.10859375 62.75445313 -8.6796875 61.59765625 C-9.41195618 60.08617859 -10.1436989 58.57444604 -10.875 57.0625 C-11.23980469 56.32708984 -11.60460937 55.59167969 -11.98046875 54.83398438 C-14.37449456 49.85005792 -16.72018205 44.59565595 -17 39 C-16.34 38.01 -15.68 37.02 -15 36 C-14.48332852 33.65794519 -14.03370693 31.30078771 -13.625 28.9375 C-11.44917539 17.43769577 -7.53042729 9.06408411 0 0 Z " fill="#E9C4C3" transform="translate(810,697)"/>
<path d="M0 0 C1.23145752 0.00612305 2.46291504 0.01224609 3.73168945 0.01855469 C12.55651933 0.17051546 19.90330213 1.10150173 28.125 4.4375 C29.45337891 4.76621094 29.45337891 4.76621094 30.80859375 5.1015625 C33.50275753 5.88610299 35.05595035 6.53287814 37.125 8.4375 C39.24407642 12.9610299 40.20743016 17.54548399 41.125 22.4375 C41.34800781 23.48550781 41.57101562 24.53351562 41.80078125 25.61328125 C45.03874407 42.94849717 42.60402836 60.17660573 40.125 77.4375 C39.795 77.4375 39.465 77.4375 39.125 77.4375 C39.01285156 76.52871094 39.01285156 76.52871094 38.8984375 75.6015625 C37.42869264 66.23554134 33.46032631 58.5982921 25.9375 52.6875 C23.09513235 50.72724645 20.17517602 49.05596075 17.125 47.4375 C17.18300781 46.61765625 17.24101563 45.7978125 17.30078125 44.953125 C17.77221278 38.38672654 17.77221278 38.38672654 15.0625 32.6875 C11.41958597 31.13732382 9.05278842 30.94652645 5.125 31.4375 C2.42980288 32.73777975 2.42980288 32.73777975 0.125 34.4375 C-1.20108822 35.11846422 -2.53186601 35.79080586 -3.875 36.4375 C-4.7 35.6125 -5.525 34.7875 -6.375 33.9375 C-8.89795097 31.84398749 -10.64998409 31.01847792 -13.9375 30.875 C-18.43696836 31.51778119 -20.01773884 31.9079421 -22.875 35.4375 C-23.15400545 37.07562108 -23.37791421 38.72357249 -23.5625 40.375 C-24.06518125 43.73113659 -24.28274356 44.9938422 -27.0390625 47.05859375 C-29.62083549 48.2809376 -32.22121243 49.38182664 -34.875 50.4375 C-38.00361339 51.92095108 -38.00361339 51.92095108 -39.875 54.4375 C-40.57003501 57.77050878 -40.80363681 61.03801694 -40.875 64.4375 C-41.205 64.4375 -41.535 64.4375 -41.875 64.4375 C-42.51218237 47.96515579 -40.38374446 31.85865951 -36.6875 15.8125 C-36.44833862 14.63143677 -36.44833862 14.63143677 -36.2043457 13.42651367 C-35.43727911 10.39069624 -34.77101298 8.19494254 -32.33740234 6.13769531 C-30.22131635 4.97650202 -28.1698887 4.18860069 -25.875 3.4375 C-24.98256592 3.14528564 -24.09013184 2.85307129 -23.1706543 2.55200195 C-15.44014229 0.34208735 -8.00660682 -0.06782942 0 0 Z " fill="#85BB7C" transform="translate(1097.875,679.5625)"/>
<path d="M0 0 C7.91741424 6.56177065 9.46973526 22.43085175 10.71484375 32.25 C10.80003437 34.9262603 10.77127059 37.57121024 10.71484375 40.25 C10.06257812 39.91226563 9.4103125 39.57453125 8.73828125 39.2265625 C3.14575877 36.34987839 3.14575877 36.34987839 -2.78515625 34.3125 C-3.61015625 33.961875 -4.43515625 33.61125 -5.28515625 33.25 C-6.41015625 30.3125 -6.41015625 30.3125 -7.28515625 27.25 C-8.86211257 25.1714392 -8.86211257 25.1714392 -11.28515625 24.25 C-16.86922663 24.35340871 -19.9787406 25.99392963 -24.28515625 29.25 C-24.92453125 28.59 -25.56390625 27.93 -26.22265625 27.25 C-30.31938885 24.57458279 -33.51656882 24.41371788 -38.28515625 25.25 C-41.0543831 26.43573025 -41.0543831 26.43573025 -42.28515625 29.25 C-42.82798025 34.05558898 -42.61073206 38.59431911 -41.28515625 43.25 C-41.99800781 43.78367187 -42.71085938 44.31734375 -43.4453125 44.8671875 C-50.84598266 50.62437102 -58.91803109 57.01203382 -60.22265625 66.875 C-60.24328125 67.98875 -60.26390625 69.1025 -60.28515625 70.25 C-60.61515625 70.25 -60.94515625 70.25 -61.28515625 70.25 C-63.08086497 59.13905231 -63.52473521 48.05310639 -63.5847168 36.81729126 C-63.5932347 35.2918428 -63.60677394 33.76641278 -63.62573242 32.24105835 C-63.90386981 7.14707614 -63.90386981 7.14707614 -57.84765625 0.625 C-39.28649418 -6.53895729 -18.4261939 -9.81561815 0 0 Z " fill="#86BC7C" transform="translate(885.28515625,681.75)"/>
<path d="M0 0 C2.39446415 1.43869064 4.00202012 3.00202012 6 5 C8.25157667 3.91590753 10.26128523 2.81639417 12.3125 1.375 C15.87478886 -0.4475664 18.04110649 -0.55563418 22 0 C26.30899405 2.35036039 26.30899405 2.35036039 28 5 C29.60065295 11.45977796 27.70414496 16.95601822 24.5546875 22.60546875 C20.8415115 28.32450616 16.75889235 33.97233229 10 36 C5.38454078 36.59698025 2.22682493 35.84161651 -1.625 33.19921875 C-8.63054222 27.16319353 -14.44380358 20.6546636 -15.375 11.1875 C-15.35045479 7.86162457 -14.73648282 6.13354084 -12.625 3.5625 C-8.7432323 -0.22684466 -5.33837957 -0.92927348 0 0 Z " fill="#FEFEFD" transform="translate(1088,710)"/>
<path d="M0 0 C2.4375 1.5 2.4375 1.5 4 4 C5.34077282 10.19791209 3.53606443 15.20943646 0.5625 20.6328125 C-2.68660482 25.55520631 -6.51485636 29.66636036 -12 32 C-16.21267308 32.5494791 -18.89946977 32.02062945 -22.3515625 29.47265625 C-27.41922639 24.94538306 -33.29407597 19.56992924 -34.37109375 12.59765625 C-34.48643014 8.19451979 -34.42949717 5.69273737 -32.0625 1.875 C-27.93723934 -0.65066979 -24.72157178 -0.9360309 -20 0 C-17.65471326 1.11520778 -16.02915609 2.33505141 -14 4 C-13.21625 3.360625 -12.4325 2.72125 -11.625 2.0625 C-7.31856558 -1.32112704 -5.37989959 -1.20583956 0 0 Z " fill="#FEFEFD" transform="translate(876,706)"/>
<path d="M0 0 C0.33 0 0.66 0 1 0 C0.83886719 1.15242187 0.67773438 2.30484375 0.51171875 3.4921875 C-0.20284237 9.96497299 -0.18603616 16.45005277 -0.18530273 22.95410156 C-0.18747451 25.09981587 -0.20564554 27.24500214 -0.22460938 29.390625 C-0.30085484 47.59929763 1.95221207 65.34110972 12 81 C12.39703125 81.61875 12.7940625 82.2375 13.203125 82.875 C14.11571004 84.26315752 15.05439287 85.63412303 16 87 C1.48032693 80.26670106 -8.49800031 64.45608917 -14.25439453 50.11523438 C-15.52091922 46.52218595 -16.76508616 42.81723177 -17 39 C-16.34 38.01 -15.68 37.02 -15 36 C-14.48332852 33.65794519 -14.03370693 31.30078771 -13.625 28.9375 C-11.44917539 17.43769577 -7.53042729 9.06408411 0 0 Z " fill="#F8F8F8" transform="translate(810,697)"/>
<path d="M0 0 C8.86702269 8.67334495 13.52103583 19.73621407 14.26171875 32.06640625 C12.93160326 52.05784351 2.89105411 71.01433977 -11.42578125 84.73046875 C-13.46140939 86.37210435 -15.48294712 87.31353103 -18 88 C-17.63648438 87.56171875 -17.27296875 87.1234375 -16.8984375 86.671875 C-1.15986698 66.81706296 0.36284084 42.85592243 0.125 18.5625 C0.11493873 16.75195814 0.10581851 14.94141079 0.09765625 13.13085938 C0.07591823 8.75376742 0.04156645 4.3769467 0 0 Z " fill="#F7F7F7" transform="translate(1154,704)"/>
</svg>
