<svg viewBox="0 0 64 64" fill="none" xmlns="http://www.w3.org/2000/svg">
  <!-- Strawberry body -->
  <ellipse cx="32" cy="38" rx="18" ry="20" fill="#d87a9c" />
  <!-- Seeds -->
  <circle cx="25" cy="32" r="1.5" fill="#f5eee0" />
  <circle cx="32" cy="28" r="1.5" fill="#f5eee0" />
  <circle cx="39" cy="32" r="1.5" fill="#f5eee0" />
  <circle cx="27" cy="42" r="1.5" fill="#f5eee0" />
  <circle cx="37" cy="42" r="1.5" fill="#f5eee0" />
  <circle cx="32" cy="48" r="1.5" fill="#f5eee0" />
  <!-- Leaf -->
  <path d="M32 18 C26 14 22 18 24 22 C26 20 30 18 32 18Z" fill="#5a9a4a" />
  <path d="M32 18 C38 14 42 18 40 22 C38 20 34 18 32 18Z" fill="#4a8a3a" />
  <!-- Cute face - eyes -->
  <circle cx="27" cy="36" r="2.5" fill="#3b2a30" />
  <circle cx="37" cy="36" r="2.5" fill="#3b2a30" />
  <!-- Eye shine -->
  <circle cx="28" cy="35" r="1" fill="#ffffff" />
  <circle cx="38" cy="35" r="1" fill="#ffffff" />
  <!-- Smile -->
  <path d="M29 40 Q32 44 35 40" stroke="#3b2a30" stroke-width="1.5" stroke-linecap="round" fill="none" />
  <!-- Blush -->
  <ellipse cx="23" cy="39" rx="3" ry="2" fill="#e0a0b4" opacity="0.5" />
  <ellipse cx="41" cy="39" rx="3" ry="2" fill="#e0a0b4" opacity="0.5" />
</svg>