<?xml version="1.0" encoding="UTF-8"?>
<svg version="1.1" xmlns="http://www.w3.org/2000/svg" width="2100" height="2100">
<path d="M0 0 C16.75016983 13.58328123 29.26890536 29.85619554 38.71484375 49.265625 C39.0180957 49.87204834 39.32134766 50.47847168 39.63378906 51.10327148 C41.6144084 55.34438028 42.07854701 58.74204271 41.71484375 63.390625 C40.71484375 65.640625 40.71484375 65.640625 38.71484375 67.390625 C37.53792969 67.73867188 36.36101562 68.08671875 35.1484375 68.4453125 C29.38177463 70.54369737 25.87550387 74.864119 21.77734375 79.265625 C14.48480267 86.8374366 7.0009015 93.41867653 -1.50390625 99.578125 C-4.84052152 101.99634517 -7.78097991 104.69242314 -10.78515625 107.515625 C-20.831613 115.79901218 -36.96238646 115.36087867 -49.28515625 114.390625 C-59.92923632 113.3422168 -70.51874235 111.96069736 -80.28515625 107.390625 C-81.01863281 107.12507812 -81.75210937 106.85953125 -82.5078125 106.5859375 C-87.03839617 104.53658937 -88.78418882 101.89446057 -90.61303711 97.29345703 C-91.64996065 94.43114833 -92.60355364 91.54577858 -93.53759766 88.6484375 C-94.50274909 85.7334406 -95.59169875 82.87368497 -96.68579102 80.00512695 C-117.64610052 24.73955665 -117.64610052 24.73955665 -117.34765625 2.953125 C-117.33863281 2.08816406 -117.32960938 1.22320313 -117.3203125 0.33203125 C-117.30291016 -0.62896484 -117.30291016 -0.62896484 -117.28515625 -1.609375 C-117.92453125 -1.91875 -118.56390625 -2.228125 -119.22265625 -2.546875 C-121.28515625 -3.609375 -121.28515625 -3.609375 -122.28515625 -4.609375 C-122.72265625 -7.859375 -122.72265625 -7.859375 -122.28515625 -11.609375 C-93.34741962 -45.50786648 -28.1948902 -22.13917475 0 0 Z " fill="#010101" transform="translate(1150.28515625,688.609375)"/>
<path d="M0 0 C14.90586332 -0.39660834 30.90205707 2.75368156 42.8984375 12.15625 C44.42335748 15.20608996 44.13406298 17.7985869 43.8984375 21.15625 C43.17672363 21.83844604 43.17672363 21.83844604 42.44042969 22.53442383 C40.28392269 24.80258025 40.30941074 26.58012659 39.9765625 29.66796875 C39.8422583 30.80161865 39.7079541 31.93526855 39.56958008 33.10327148 C39.43060303 34.33762939 39.29162598 35.5719873 39.1484375 36.84375 C36.35859189 58.90989648 31.5368591 80.40112973 25.2109375 101.71875 C24.65853394 103.5913147 24.65853394 103.5913147 24.0949707 105.50170898 C19.62867173 120.07027896 19.62867173 120.07027896 14.53125 123.96484375 C-3.28992828 132.02932353 -25.03003708 134.67770762 -43.8515625 129.03125 C-59.02358732 120.27815876 -71.24449955 108.24976713 -80.7265625 93.59375 C-82.86218034 90.43761547 -84.16602781 88.6615546 -87.9140625 87.71875 C-89.491875 87.4403125 -89.491875 87.4403125 -91.1015625 87.15625 C-93.62706625 83.36799438 -93.49609093 81.66580168 -93.1015625 77.15625 C-92.22417332 74.2218068 -91.01743325 71.49291003 -89.7265625 68.71875 C-89.36788086 67.93669189 -89.00919922 67.15463379 -88.63964844 66.34887695 C-82.08133083 52.42720404 -73.90090757 41.06374301 -63.1015625 30.15625 C-62.49957031 29.49367188 -61.89757812 28.83109375 -61.27734375 28.1484375 C-46.04951122 11.65481536 -22.22624912 1.11971028 0 0 Z " fill="#020201" transform="translate(876.1015625,661.84375)"/>
<path d="M0 0 C1.051875 0.51304687 2.10375 1.02609375 3.1875 1.5546875 C8.95390469 4.5058899 14.45878667 7.76934356 19.75 11.5 C20.73484375 12.1909375 21.7196875 12.881875 22.734375 13.59375 C25.63033556 16.66945984 25.89785535 18.95453418 26 23 C26.03641602 23.93505371 26.07283203 24.87010742 26.11035156 25.83349609 C26.50784035 39.51757073 26.49727635 52.70182734 23 66 C22.78005371 66.87027832 22.56010742 67.74055664 22.33349609 68.63720703 C20.68446583 75.13047108 18.98421303 81.60046609 17 88 C16.73558105 88.92973633 16.47116211 89.85947266 16.19873047 90.81738281 C15.34071274 93.44085555 14.47746303 95.66852205 13 98 C9.79811633 99.5392953 8.41962994 99.85003354 5 100 C3.9495752 100.05220703 2.89915039 100.10441406 1.81689453 100.15820312 C-1.93844708 100.27142433 -5.68060381 100.27709356 -9.4375 100.25 C-10.10141754 100.24689819 -10.76533508 100.24379639 -11.44937134 100.24060059 C-34.45045146 100.11427251 -34.45045146 100.11427251 -42 98 C-46.04444718 93.55136033 -47.22070814 87.81776461 -48.9375 82.1875 C-49.29013916 81.03636719 -49.64277832 79.88523437 -50.00610352 78.69921875 C-55.18859231 61.22224244 -58.1757171 43.15159273 -58.1328125 24.90625 C-58.13376923 23.99290894 -58.13472595 23.07956787 -58.13571167 22.1385498 C-58.13638641 20.2294101 -58.13458195 18.320268 -58.13037109 16.41113281 C-58.12496267 13.47976633 -58.13036535 10.54854961 -58.13671875 7.6171875 C-58.13605881 5.755208 -58.13477941 3.89322858 -58.1328125 2.03125 C-58.13483673 1.15424438 -58.13686096 0.27723877 -58.13894653 -0.62634277 C-58.11499206 -6.77001589 -58.11499206 -6.77001589 -57 -9 C-39.06782997 -14.31068113 -16.14712005 -8.02768753 0 0 Z " fill="#85BC7C" transform="translate(1118,687)"/>
<path d="M0 0 C1.23363281 -0.02578125 2.46726562 -0.0515625 3.73828125 -0.078125 C8.40693867 0.30977532 12.33461089 1.59068393 16.6875 3.25 C17.29817324 34.46010002 17.26815324 70.44146067 3.6875 99.25 C0.47166916 100.77021094 -0.91942593 101.031092 -4.3125 101.25 C-5.19421875 101.4253125 -6.0759375 101.600625 -6.984375 101.78125 C-14.02454749 103.16739795 -20.97320754 103.45877929 -28.125 103.5 C-29.00824951 103.50918457 -29.89149902 103.51836914 -30.80151367 103.52783203 C-33.31655895 103.51599207 -35.80286177 103.41027642 -38.3125 103.25 C-39.06539307 103.22703857 -39.81828613 103.20407715 -40.59399414 103.18041992 C-42.7109375 102.93359375 -42.7109375 102.93359375 -46.3125 101.25 C-48.31342208 97.71110025 -49.18710182 93.99740111 -50.125 90.0625 C-50.55353271 88.43223877 -50.55353271 88.43223877 -50.99072266 86.76904297 C-51.80776589 83.60470359 -52.57173144 80.43296554 -53.3125 77.25 C-53.59697998 76.0427124 -53.59697998 76.0427124 -53.88720703 74.81103516 C-57.23017271 60.29386641 -62.91248553 35.25727638 -55.38671875 21.80859375 C-52.49677906 19.41529555 -49.68955133 17.8798963 -46.3125 16.25 C-45.1549136 15.50626402 -44.0092609 14.74369013 -42.875 13.96484375 C-30.18391078 5.41983362 -15.34630252 0.19123118 0 0 Z " fill="#85BB7B" transform="translate(880.3125,675.75)"/>
<path d="M0 0 C2.375 0.9375 2.375 0.9375 4.375 3.9375 C4.60205078 6.11401367 4.60205078 6.11401367 4.5703125 8.60546875 C4.56386719 9.49814453 4.55742188 10.39082031 4.55078125 11.31054688 C4.53402344 12.23931641 4.51726562 13.16808594 4.5 14.125 C4.49097656 15.06537109 4.48195313 16.00574219 4.47265625 16.97460938 C4.44909056 19.29582968 4.41619116 21.61653644 4.375 23.9375 C5.09623047 23.99228516 5.81746094 24.04707031 6.56054688 24.10351562 C14.02660315 24.69483882 21.44571157 25.49483903 28.875 26.4375 C30.46054688 26.63279297 30.46054688 26.63279297 32.078125 26.83203125 C33.60179687 27.02345703 33.60179687 27.02345703 35.15625 27.21875 C36.06439453 27.33283203 36.97253906 27.44691406 37.90820312 27.56445312 C40.11629396 27.8983766 42.22176493 28.35208136 44.375 28.9375 C43.73946326 35.44600881 42.30733743 41.51723046 40.5625 47.8125 C40.31435547 48.74191406 40.06621094 49.67132812 39.81054688 50.62890625 C39.04691602 53.41528449 38.22348784 56.1758706 37.375 58.9375 C36.974021 60.34950684 36.974021 60.34950684 36.56494141 61.79003906 C35.70982253 64.40376321 34.85263516 66.6182978 33.375 68.9375 C30.17311633 70.4767953 28.79462994 70.78753354 25.375 70.9375 C24.3245752 70.98970703 23.27415039 71.04191406 22.19189453 71.09570312 C18.43655292 71.20892433 14.69439619 71.21459356 10.9375 71.1875 C10.27358246 71.18439819 9.60966492 71.18129639 8.92562866 71.17810059 C-14.07545146 71.05177251 -14.07545146 71.05177251 -21.625 68.9375 C-25.74017961 64.433611 -26.8933552 58.52303652 -28.625 52.8125 C-28.97949219 51.65427734 -29.33398438 50.49605469 -29.69921875 49.30273438 C-32.58281866 39.61748337 -35.625 29.14570018 -35.625 18.9375 C-32.4790812 19.24914329 -29.33328168 19.56197585 -26.1875 19.875 C-25.30900391 19.96201172 -24.43050781 20.04902344 -23.52539062 20.13867188 C-17.8872785 20.7004026 -12.25525339 21.30173385 -6.625 21.9375 C-6.67140625 20.68453125 -6.7178125 19.4315625 -6.765625 18.140625 C-6.80314813 16.48960719 -6.83954771 14.83856358 -6.875 13.1875 C-6.90851563 12.3625 -6.94203125 11.5375 -6.9765625 10.6875 C-7.07530513 4.56545715 -7.07530513 4.56545715 -4.7734375 1.35546875 C-2.625 -0.0625 -2.625 -0.0625 0 0 Z " fill="#D9FCD2" transform="translate(1097.625,716.0625)"/>
<path d="M0 0 C2.03120707 3.04681061 2.24659875 3.60118324 2.1953125 7.01171875 C2.18886719 7.76904297 2.18242188 8.52636719 2.17578125 9.30664062 C2.15902344 10.09232422 2.14226563 10.87800781 2.125 11.6875 C2.11597656 12.48478516 2.10695313 13.28207031 2.09765625 14.10351562 C2.07411585 16.069139 2.03824547 18.03460775 2 20 C2.78648926 19.93941406 3.57297852 19.87882813 4.38330078 19.81640625 C7.96369184 19.54192544 11.54433852 19.2709294 15.125 19 C16.3625 18.90460937 17.6 18.80921875 18.875 18.7109375 C20.07382812 18.62070312 21.27265625 18.53046875 22.5078125 18.4375 C24.15740967 18.31181641 24.15740967 18.31181641 25.84033203 18.18359375 C28.90200278 18.00569417 31.93399307 17.96768372 35 18 C34.51384777 26.36400065 32.64660921 34.21800661 30.5625 42.3125 C30.24990234 43.56095703 29.93730469 44.80941406 29.61523438 46.09570312 C26.67945126 57.67125389 26.67945126 57.67125389 25 61 C22.21533089 61.9982776 19.890972 62.53327568 17 63 C16.11570312 63.18433594 15.23140625 63.36867188 14.3203125 63.55859375 C7.27302343 64.88568065 0.33796284 65.20878696 -6.8125 65.25 C-7.69574951 65.25918457 -8.57899902 65.26836914 -9.48901367 65.27783203 C-12.00395128 65.26599257 -14.49040222 65.15901594 -17 65 C-18.12825195 64.97099609 -18.12825195 64.97099609 -19.27929688 64.94140625 C-21.39453125 64.703125 -21.39453125 64.703125 -25 63 C-27.0143775 59.35301638 -27.91452127 55.53401066 -28.875 51.5 C-29.15601563 50.448125 -29.43703125 49.39625 -29.7265625 48.3125 C-34.39563947 30.51715002 -34.39563947 30.51715002 -34 23 C-25.6030674 21.62707087 -17.51372785 20.68725081 -9 21 C-9.05220703 19.10314453 -9.05220703 19.10314453 -9.10546875 17.16796875 C-9.13360677 15.50782577 -9.16090691 13.84766844 -9.1875 12.1875 C-9.21263672 11.35412109 -9.23777344 10.52074219 -9.26367188 9.66210938 C-9.27333984 8.85966797 -9.28300781 8.05722656 -9.29296875 7.23046875 C-9.3086792 6.49207764 -9.32438965 5.75368652 -9.34057617 4.99291992 C-8.44972477 -0.21999763 -4.6333509 -0.5914916 0 0 Z " fill="#D8FBD2" transform="translate(859,714)"/>
<path d="M0 0 C8.905066 8.42160357 14.48252003 19.24792256 19.26098633 30.40136719 C21.00516578 34.36545372 22.43880592 36.58299799 26 39 C-0.56374049 66.58075897 -0.56374049 66.58075897 -17 76 C-15.66959804 71.99201965 -14.31450218 67.99353473 -12.94140625 64 C-7.02286644 46.75290298 -7.02286644 46.75290298 -3 29 C-2.81050781 28.12859375 -2.62101562 27.2571875 -2.42578125 26.359375 C-0.59157806 17.66967479 -0.36989205 8.84820714 0 0 Z " fill="#FAFAFA" transform="translate(1157,718)"/>
<path d="M0 0 C0.33 0 0.66 0 1 0 C1.02578125 1.06734375 1.0515625 2.1346875 1.078125 3.234375 C1.63481075 19.66220896 4.98786062 34.97803288 9.5 50.75 C9.78439941 51.7498291 10.06879883 52.7496582 10.36181641 53.77978516 C11.67993259 58.22833338 13.08228401 62.38938699 15.21875 66.515625 C17 70 17 70 17 73 C2.2843807 63.2626434 -9.78512315 51.14084267 -19 36 C-19 35.34 -19 34.68 -19 34 C-18.34 34 -17.68 34 -17 34 C-16.67 32.845 -16.34 31.69 -16 30.5 C-12.47841569 19.95193705 -6.97402208 8.68736315 0 0 Z " fill="#F9F9F9" transform="translate(811,715)"/>
<path d="M0 0 C-0.00523682 1.12792969 -0.01047363 2.25585938 -0.01586914 3.41796875 C-0.03424091 7.6822833 -0.04554708 11.94659451 -0.05493164 16.2109375 C-0.0598995 18.04167269 -0.06667607 19.87240405 -0.07543945 21.703125 C-0.15277382 38.29817048 0.35722191 54.26459519 3.5 70.625 C3.94797819 73.03384273 4.39589702 75.44269649 4.84375 77.8515625 C5.14055664 79.41124756 5.14055664 79.41124756 5.44335938 81.00244141 C5.99929899 83.99622498 6.5086109 86.99500983 7 90 C3.96811126 86.52463764 2.66232523 82.68027495 1.2578125 78.3671875 C1.00756317 77.6164798 0.75731384 76.86577209 0.4994812 76.09231567 C-0.03013412 74.49811402 -0.55608094 72.90268961 -1.07861328 71.30615234 C-1.85733701 68.9289203 -2.64827236 66.55605117 -3.44140625 64.18359375 C-6.05921105 56.29860117 -8.52993117 48.38396017 -10.76953125 40.3828125 C-10.96920502 39.67277069 -11.16887878 38.96272888 -11.37460327 38.23117065 C-14.35887584 27.34944904 -16.539113 16.32137295 -16 5 C-14.80375 4.731875 -13.6075 4.46375 -12.375 4.1875 C-8.19856268 3.15820073 -4.16077204 0 0 0 Z " fill="#F9F9F9" transform="translate(1049,682)"/>
<path d="M0 0 C2.375 0.9375 2.375 0.9375 4.375 3.9375 C4.79006087 8.58758876 4.51496484 13.27425767 4.375 17.9375 C4.35034668 18.8538623 4.32569336 19.77022461 4.30029297 20.71435547 C4.21419741 23.70605316 4.11021541 26.69659933 4 29.6875 C3.9693042 30.66436768 3.9386084 31.64123535 3.90698242 32.64770508 C3.86806885 33.56318115 3.82915527 34.47865723 3.7890625 35.421875 C3.7576416 36.24397461 3.7262207 37.06607422 3.69384766 37.91308594 C3.375 39.9375 3.375 39.9375 1.375 41.9375 C-1.625 42.25 -1.625 42.25 -4.625 41.9375 C-7.08263886 38.25104171 -6.94805499 35.39800134 -6.9609375 31.12890625 C-6.9675943 30.36577621 -6.9742511 29.60264618 -6.98110962 28.81639099 C-6.99122807 27.20338347 -6.99592689 25.59033415 -6.99560547 23.97729492 C-6.99997844 21.51215534 -7.03630219 19.04880713 -7.07421875 16.58398438 C-7.08008722 15.01563111 -7.08405641 13.44726936 -7.0859375 11.87890625 C-7.10030853 11.14338028 -7.11467957 10.40785431 -7.12948608 9.65003967 C-7.09843488 6.1643516 -6.87032724 4.26643378 -4.76025391 1.43725586 C-2.625 -0.0625 -2.625 -0.0625 0 0 Z " fill="#FDFEFD" transform="translate(1097.625,716.0625)"/>
<path d="M0 0 C2.40876987 3.6131548 2.4468201 6.49255598 2.625 10.6875 C2.66149658 11.43338379 2.69799316 12.17926758 2.7355957 12.94775391 C3.72201608 34.91697588 3.72201608 34.91697588 1 39 C-2.5 39.375 -2.5 39.375 -6 39 C-8.05721592 35.91417612 -8.27346154 35.05991417 -8.4140625 31.53515625 C-8.45305664 30.65778809 -8.49205078 29.78041992 -8.53222656 28.87646484 C-8.5628418 27.94785645 -8.59345703 27.01924805 -8.625 26.0625 C-8.66077148 25.11842285 -8.69654297 24.1743457 -8.73339844 23.20166016 C-8.80104774 21.32390891 -8.86365743 19.44596844 -8.92089844 17.56787109 C-8.98783146 15.39502686 -9.07383099 13.22278271 -9.1640625 11.05078125 C-9.20660156 9.47876953 -9.20660156 9.47876953 -9.25 7.875 C-9.27578125 6.98554687 -9.3015625 6.09609375 -9.328125 5.1796875 C-9 3 -9 3 -7.67578125 1.21875 C-5.09558263 -0.65775809 -3.08673946 -0.39405185 0 0 Z " fill="#FEFEFE" transform="translate(859,714)"/>
<path d="M0 0 C2.97 0.99 5.94 1.98 9 3 C8.50881805 31.75647071 0.62226906 60.73755199 -8 88 C-9.25295 83.83196589 -8.4468018 81.26431503 -7.25 77.0625 C-5.47623895 70.48624815 -4.25366103 63.93228577 -3.3125 57.1875 C-3.19358398 56.34131104 -3.07466797 55.49512207 -2.95214844 54.62329102 C-2.61045969 52.0845042 -2.29697202 49.54439383 -2 47 C-1.8596936 45.79887573 -1.8596936 45.79887573 -1.71655273 44.57348633 C-0.77759122 35.51194206 -0.65728243 26.41328685 -0.4375 17.3125 C-0.39420592 15.6282468 -0.35058859 13.94400189 -0.30664062 12.25976562 C-0.20070272 8.17326289 -0.09913075 4.0866733 0 0 Z " fill="#F6F6F6" transform="translate(907,683)"/>
</svg>
