<?xml version="1.0" encoding="UTF-8"?>
<svg version="1.1" xmlns="http://www.w3.org/2000/svg" width="2100" height="2100">
<path d="M0 0 C16.75016983 13.58328123 29.26890536 29.85619554 38.71484375 49.265625 C39.0180957 49.87204834 39.32134766 50.47847168 39.63378906 51.10327148 C41.6144084 55.34438028 42.07854701 58.74204271 41.71484375 63.390625 C40.71484375 65.640625 40.71484375 65.640625 38.71484375 67.390625 C37.53792969 67.73867188 36.36101562 68.08671875 35.1484375 68.4453125 C29.38177463 70.54369737 25.87550387 74.864119 21.77734375 79.265625 C14.48480267 86.8374366 7.0009015 93.41867653 -1.50390625 99.578125 C-4.84052152 101.99634517 -7.78097991 104.69242314 -10.78515625 107.515625 C-20.831613 115.79901218 -36.96238646 115.36087867 -49.28515625 114.390625 C-59.92923632 113.3422168 -70.51874235 111.96069736 -80.28515625 107.390625 C-81.01863281 107.12507812 -81.75210937 106.85953125 -82.5078125 106.5859375 C-87.03839617 104.53658937 -88.78418882 101.89446057 -90.61303711 97.29345703 C-91.64996065 94.43114833 -92.60355364 91.54577858 -93.53759766 88.6484375 C-94.50274909 85.7334406 -95.59169875 82.87368497 -96.68579102 80.00512695 C-117.64610052 24.73955665 -117.64610052 24.73955665 -117.34765625 2.953125 C-117.33863281 2.08816406 -117.32960938 1.22320313 -117.3203125 0.33203125 C-117.30291016 -0.62896484 -117.30291016 -0.62896484 -117.28515625 -1.609375 C-117.92453125 -1.91875 -118.56390625 -2.228125 -119.22265625 -2.546875 C-121.28515625 -3.609375 -121.28515625 -3.609375 -122.28515625 -4.609375 C-122.72265625 -7.859375 -122.72265625 -7.859375 -122.28515625 -11.609375 C-93.34741962 -45.50786648 -28.1948902 -22.13917475 0 0 Z " fill="#010101" transform="translate(1150.28515625,688.609375)"/>
<path d="M0 0 C14.90586332 -0.39660834 30.90205707 2.75368156 42.8984375 12.15625 C44.42335748 15.20608996 44.13406298 17.7985869 43.8984375 21.15625 C43.17672363 21.83844604 43.17672363 21.83844604 42.44042969 22.53442383 C40.28392269 24.80258025 40.30941074 26.58012659 39.9765625 29.66796875 C39.8422583 30.80161865 39.7079541 31.93526855 39.56958008 33.10327148 C39.43060303 34.33762939 39.29162598 35.5719873 39.1484375 36.84375 C36.35859189 58.90989648 31.5368591 80.40112973 25.2109375 101.71875 C24.65853394 103.5913147 24.65853394 103.5913147 24.0949707 105.50170898 C19.62867173 120.07027896 19.62867173 120.07027896 14.53125 123.96484375 C-3.28992828 132.02932353 -25.03003708 134.67770762 -43.8515625 129.03125 C-59.02358732 120.27815876 -71.24449955 108.24976713 -80.7265625 93.59375 C-82.86218034 90.43761547 -84.16602781 88.6615546 -87.9140625 87.71875 C-89.491875 87.4403125 -89.491875 87.4403125 -91.1015625 87.15625 C-93.62706625 83.36799438 -93.49609093 81.66580168 -93.1015625 77.15625 C-92.22417332 74.2218068 -91.01743325 71.49291003 -89.7265625 68.71875 C-89.36788086 67.93669189 -89.00919922 67.15463379 -88.63964844 66.34887695 C-82.08133083 52.42720404 -73.90090757 41.06374301 -63.1015625 30.15625 C-62.49957031 29.49367188 -61.89757812 28.83109375 -61.27734375 28.1484375 C-46.04951122 11.65481536 -22.22624912 1.11971028 0 0 Z " fill="#73A8BB" transform="translate(876.1015625,661.84375)"/>
<path d="M0 0 C6.53557172 4.790277 6.53557172 4.790277 7.546875 8.80859375 C7.66767928 10.1667867 7.75059763 11.52847602 7.8125 12.890625 C7.85576416 13.83615234 7.89902832 14.78167969 7.94360352 15.75585938 C8.45704625 31.27843801 7.91371181 45.88302653 3.8125 60.890625 C3.45115967 62.21441162 3.45115967 62.21441162 3.08251953 63.56494141 C1.46168473 69.38610401 -0.25433246 75.16552564 -2.1875 80.890625 C-2.38279297 81.56988037 -2.57808594 82.24913574 -2.77929688 82.94897461 C-3.41015625 84.84375 -3.41015625 84.84375 -5.1875 87.890625 C-7.91200437 88.98489315 -9.73332563 89.47649137 -12.5625 89.828125 C-13.20316406 89.93962891 -13.84382813 90.05113281 -14.50390625 90.16601562 C-25.48569883 91.87594658 -36.76180212 90.91089172 -47.75 89.765625 C-48.89791016 89.6728125 -50.04582031 89.58 -51.22851562 89.484375 C-59.41884121 88.62173099 -59.41884121 88.62173099 -62.74609375 85.45703125 C-64.67612568 80.6816406 -66.28437127 75.9085941 -67.6875 70.953125 C-67.98865723 69.90423096 -68.28981445 68.85533691 -68.60009766 67.7746582 C-71.60387125 56.96414329 -73.71237858 46.01052965 -75.1875 34.890625 C-75.34436279 33.71729614 -75.34436279 33.71729614 -75.50439453 32.52026367 C-76.49980556 23.59930929 -76.33823768 14.61721397 -76.31787109 5.65356445 C-76.31245318 2.80349554 -76.3178728 -0.0464199 -76.32421875 -2.89648438 C-76.32355895 -4.70833368 -76.32227982 -6.52018289 -76.3203125 -8.33203125 C-76.32233673 -9.18402603 -76.32436096 -10.03602081 -76.32644653 -10.91383362 C-76.30249789 -16.87937922 -76.30249789 -16.87937922 -75.1875 -19.109375 C-50.78142095 -27.42262317 -19.94743148 -13.20050612 0 0 Z " fill="#74A8BC" transform="translate(1136.1875,697.109375)"/>
<path d="M0 0 C14.90586332 -0.39660834 30.90205707 2.75368156 42.8984375 12.15625 C44.42335748 15.20608996 44.13406298 17.7985869 43.8984375 21.15625 C43.17672363 21.83844604 43.17672363 21.83844604 42.44042969 22.53442383 C40.28392269 24.80258025 40.30941074 26.58012659 39.9765625 29.66796875 C39.8422583 30.80161865 39.7079541 31.93526855 39.56958008 33.10327148 C39.43060303 34.33762939 39.29162598 35.5719873 39.1484375 36.84375 C36.35859189 58.90989648 31.5368591 80.40112973 25.2109375 101.71875 C24.65853394 103.5913147 24.65853394 103.5913147 24.0949707 105.50170898 C19.62867173 120.07027896 19.62867173 120.07027896 14.53125 123.96484375 C-3.28992828 132.02932353 -25.03003708 134.67770762 -43.8515625 129.03125 C-59.02358732 120.27815876 -71.24449955 108.24976713 -80.7265625 93.59375 C-82.86218034 90.43761547 -84.16602781 88.6615546 -87.9140625 87.71875 C-89.491875 87.4403125 -89.491875 87.4403125 -91.1015625 87.15625 C-93.62706625 83.36799438 -93.49609093 81.66580168 -93.1015625 77.15625 C-92.22417332 74.2218068 -91.01743325 71.49291003 -89.7265625 68.71875 C-89.36788086 67.93669189 -89.00919922 67.15463379 -88.63964844 66.34887695 C-82.08133083 52.42720404 -73.90090757 41.06374301 -63.1015625 30.15625 C-62.49957031 29.49367188 -61.89757812 28.83109375 -61.27734375 28.1484375 C-46.04951122 11.65481536 -22.22624912 1.11971028 0 0 Z M-47.1015625 34.15625 C-48.17792969 34.76597656 -49.25429688 35.37570312 -50.36328125 36.00390625 C-52.66374469 37.95274636 -53.08067892 39.04740807 -53.65820312 42.05737305 C-53.88121417 45.85201213 -53.88600405 49.60956065 -53.7890625 53.40625 C-53.78013977 54.09409576 -53.77121704 54.78194153 -53.76202393 55.4906311 C-53.57392239 69.1118245 -51.47663513 81.95893628 -48.1015625 95.15625 C-47.87162598 96.13916016 -47.64168945 97.12207031 -47.40478516 98.13476562 C-46.74093459 100.96681884 -46.02648551 103.7800602 -45.2890625 106.59375 C-44.99008057 107.85578247 -44.99008057 107.85578247 -44.68505859 109.14331055 C-44.03427839 111.41340186 -43.42028587 113.19702055 -42.1015625 115.15625 C-36.19844903 117.68522703 -30.02216638 117.47118573 -23.6640625 117.40625 C-22.70773926 117.39948242 -21.75141602 117.39271484 -20.76611328 117.38574219 C-14.64628871 117.29815608 -8.56610857 117.02764598 -2.4765625 116.40625 C-1.4393103 116.3139209 -1.4393103 116.3139209 -0.38110352 116.21972656 C2.55841259 115.86377963 4.68608422 115.29526478 7.171875 113.66796875 C9.72796251 109.94949756 10.74167368 106.04992556 11.8984375 101.71875 C12.15334961 100.78933594 12.40826172 99.85992188 12.67089844 98.90234375 C20.02112448 71.39229217 21.24325078 44.44950604 20.8984375 16.15625 C-4.2390578 9.964503 -27.40007427 18.28736639 -47.1015625 34.15625 Z " fill="#010101" transform="translate(876.1015625,661.84375)"/>
<path d="M0 0 C5.11330432 -0.65276225 5.11330432 -0.65276225 7.6730957 1.23168945 C9.39041405 3.52028868 9.34723434 4.82806977 9.29296875 7.66796875 C9.2784668 9.00698242 9.2784668 9.00698242 9.26367188 10.37304688 C9.23853516 11.30181641 9.21339844 12.23058594 9.1875 13.1875 C9.16719727 14.59805664 9.16719727 14.59805664 9.14648438 16.03710938 C9.11113096 18.35865038 9.06178674 20.67903653 9 23 C10.06347656 23.03867187 10.06347656 23.03867187 11.1484375 23.078125 C23.88927122 23.75681348 36.42001627 25.95820025 49 28 C48.42961453 34.76903233 47.10594834 40.93000898 45.1875 47.4375 C44.93935547 48.31470703 44.69121094 49.19191406 44.43554688 50.09570312 C43.66788374 52.74638728 42.84321428 55.37245588 42 58 C41.72615479 58.928125 41.45230957 59.85625 41.17016602 60.8125 C40.30316395 63.41467625 39.44843498 65.67023158 38 68 C35.04123197 69.40701369 33.65757077 69.85146829 30.5625 70.125 C29.26441406 70.31320312 27.96632813 70.50140625 26.62890625 70.6953125 C16.20267443 71.55957837 5.82119337 70.95726103 -4.5625 69.875 C-5.71041016 69.7821875 -6.85832031 69.689375 -8.04101562 69.59375 C-16.21557996 68.73276604 -16.21557996 68.73276604 -19.55078125 65.6171875 C-21.57275964 60.57041664 -23.1711047 55.48659636 -24.625 50.25 C-24.9240625 49.21617187 -25.223125 48.18234375 -25.53125 47.1171875 C-28.2235746 37.65831257 -30.31802904 28.85890022 -30 19 C-26.25544836 18.07054349 -23.29285819 18.02613712 -19.48046875 18.55859375 C-18.45888672 18.69716797 -17.43730469 18.83574219 -16.38476562 18.97851562 C-15.32966797 19.12998047 -14.27457031 19.28144531 -13.1875 19.4375 C-12.11306641 19.58509766 -11.03863281 19.73269531 -9.93164062 19.88476562 C-7.28665198 20.24918628 -4.64295598 20.62116467 -2 21 C-2.02320313 19.73542969 -2.04640625 18.47085938 -2.0703125 17.16796875 C-2.08907126 15.5078184 -2.10727135 13.84766167 -2.125 12.1875 C-2.14175781 11.35412109 -2.15851563 10.52074219 -2.17578125 9.66210938 C-2.18222656 8.85966797 -2.18867187 8.05722656 -2.1953125 7.23046875 C-2.20578613 6.49207764 -2.21625977 5.75368652 -2.22705078 4.99291992 C-2 3 -2 3 0 0 Z " fill="#AEE6FC" transform="translate(1093,717)"/>
<path d="M0 0 C1.11375 0.268125 2.2275 0.53625 3.375 0.8125 C5.02997356 4.12244713 4.47584335 7.80373 4.4375 11.4375 C4.43298828 12.23929688 4.42847656 13.04109375 4.42382812 13.8671875 C4.41203168 15.84899006 4.39409605 17.83075433 4.375 19.8125 C5.09042969 19.75191406 5.80585937 19.69132813 6.54296875 19.62890625 C9.82003468 19.35334443 13.09750299 19.08288437 16.375 18.8125 C17.50035156 18.71710937 18.62570312 18.62171875 19.78515625 18.5234375 C25.67150845 18.04151393 31.4690881 17.69669781 37.375 17.8125 C36.85153271 25.56893857 35.35739504 32.89919429 33.5 40.4375 C33.24347656 41.51773438 32.98695313 42.59796875 32.72265625 43.7109375 C28.80351676 59.86015549 28.80351676 59.86015549 24.375 62.8125 C21.91495512 63.29323253 19.54655199 63.65955611 17.0625 63.9375 C16.32845947 64.0209668 15.59441895 64.10443359 14.83813477 64.19042969 C8.4998454 64.83471177 2.18098459 65.02706285 -4.1875 65.0625 C-5.10249268 65.07168457 -6.01748535 65.08086914 -6.96020508 65.09033203 C-9.52644129 65.07859369 -12.06410801 64.97281266 -14.625 64.8125 C-15.76001953 64.78349609 -15.76001953 64.78349609 -16.91796875 64.75390625 C-19.03515625 64.515625 -19.03515625 64.515625 -22.625 62.8125 C-24.63821553 59.16475743 -25.53948481 55.3466638 -26.5 51.3125 C-26.78101563 50.260625 -27.06203125 49.20875 -27.3515625 48.125 C-32.02063947 30.32965002 -32.02063947 30.32965002 -31.625 22.8125 C-23.20981953 21.29233837 -15.1761272 20.53516614 -6.625 20.8125 C-6.67720703 18.91564453 -6.67720703 18.91564453 -6.73046875 16.98046875 C-6.75860677 15.32032577 -6.78590691 13.66016844 -6.8125 12 C-6.83763672 11.16662109 -6.86277344 10.33324219 -6.88867188 9.47460938 C-6.89833984 8.67216797 -6.90800781 7.86972656 -6.91796875 7.04296875 C-6.9336792 6.30457764 -6.94938965 5.56618652 -6.96557617 4.80541992 C-6.21836302 0.43301779 -4.18320363 -0.2163726 0 0 Z " fill="#AEE6FC" transform="translate(856.625,714.1875)"/>
<path d="M0 0 C8.905066 8.42160357 14.48252003 19.24792256 19.26098633 30.40136719 C21.00516578 34.36545372 22.43880592 36.58299799 26 39 C-0.56374049 66.58075897 -0.56374049 66.58075897 -17 76 C-15.66959804 71.99201965 -14.31450218 67.99353473 -12.94140625 64 C-7.02286644 46.75290298 -7.02286644 46.75290298 -3 29 C-2.81050781 28.12859375 -2.62101562 27.2571875 -2.42578125 26.359375 C-0.59157806 17.66967479 -0.36989205 8.84820714 0 0 Z " fill="#FAFAFA" transform="translate(1157,718)"/>
<path d="M0 0 C0.33 0 0.66 0 1 0 C1.02578125 1.06734375 1.0515625 2.1346875 1.078125 3.234375 C1.63481075 19.66220896 4.98786062 34.97803288 9.5 50.75 C9.78439941 51.7498291 10.06879883 52.7496582 10.36181641 53.77978516 C11.67993259 58.22833338 13.08228401 62.38938699 15.21875 66.515625 C17 70 17 70 17 73 C2.2843807 63.2626434 -9.78512315 51.14084267 -19 36 C-19 35.34 -19 34.68 -19 34 C-18.34 34 -17.68 34 -17 34 C-16.67 32.845 -16.34 31.69 -16 30.5 C-12.47841569 19.95193705 -6.97402208 8.68736315 0 0 Z " fill="#F9F9F9" transform="translate(811,715)"/>
<path d="M0 0 C-0.00523682 1.12792969 -0.01047363 2.25585938 -0.01586914 3.41796875 C-0.03424091 7.6822833 -0.04554708 11.94659451 -0.05493164 16.2109375 C-0.0598995 18.04167269 -0.06667607 19.87240405 -0.07543945 21.703125 C-0.15277382 38.29817048 0.35722191 54.26459519 3.5 70.625 C3.94797819 73.03384273 4.39589702 75.44269649 4.84375 77.8515625 C5.14055664 79.41124756 5.14055664 79.41124756 5.44335938 81.00244141 C5.99929899 83.99622498 6.5086109 86.99500983 7 90 C3.96811126 86.52463764 2.66232523 82.68027495 1.2578125 78.3671875 C1.00756317 77.6164798 0.75731384 76.86577209 0.4994812 76.09231567 C-0.03013412 74.49811402 -0.55608094 72.90268961 -1.07861328 71.30615234 C-1.85733701 68.9289203 -2.64827236 66.55605117 -3.44140625 64.18359375 C-6.05921105 56.29860117 -8.52993117 48.38396017 -10.76953125 40.3828125 C-10.96920502 39.67277069 -11.16887878 38.96272888 -11.37460327 38.23117065 C-14.35887584 27.34944904 -16.539113 16.32137295 -16 5 C-14.80375 4.731875 -13.6075 4.46375 -12.375 4.1875 C-8.19856268 3.15820073 -4.16077204 0 0 0 Z " fill="#F9F9F9" transform="translate(1049,682)"/>
<path d="M0 0 C3.05665587 -0.39021139 5.08183662 -0.63565157 7.67578125 1.16015625 C9.56357689 3.78302276 9.32779302 5.59575873 9.25 8.8125 C9.22164062 10.04097656 9.19328125 11.26945313 9.1640625 12.53515625 C9.10954142 14.02344361 9.05483608 15.51172422 9 17 C8.97389648 17.9163623 8.94779297 18.83272461 8.92089844 19.77685547 C8.83529667 22.76848979 8.73302581 25.75909628 8.625 28.75 C8.57907715 30.21530151 8.57907715 30.21530151 8.53222656 31.71020508 C8.49323242 32.62568115 8.45423828 33.54115723 8.4140625 34.484375 C8.3826416 35.30647461 8.3512207 36.12857422 8.31884766 36.97558594 C8 39 8 39 6 41 C3 41.3125 3 41.3125 0 41 C-2.4704048 37.29439279 -2.28905784 34.44341045 -2.265625 30.15625 C-2.26753845 29.39074829 -2.2694519 28.62524658 -2.27142334 27.83654785 C-2.27278333 26.21931631 -2.26909986 24.60207379 -2.26074219 22.98486328 C-2.25003973 20.5091907 -2.26064344 18.03424376 -2.2734375 15.55859375 C-2.27211587 13.98697756 -2.26955341 12.41536183 -2.265625 10.84375 C-2.26967346 10.10306274 -2.27372192 9.36237549 -2.27789307 8.59924316 C-2.24372814 4.85550932 -2.13023445 3.19535167 0 0 Z " fill="#FDFEFD" transform="translate(1093,717)"/>
<path d="M0 0 C1.670625 0.4021875 1.670625 0.4021875 3.375 0.8125 C4.89746129 3.85742257 4.75850592 7.08864985 4.9375 10.4375 C4.99901245 11.56309326 4.99901245 11.56309326 5.06176758 12.71142578 C5.33057713 18.03530192 5.50755378 23.35709946 5.5625 28.6875 C5.57667969 29.98429688 5.59085938 31.28109375 5.60546875 32.6171875 C5.375 35.8125 5.375 35.8125 3.375 38.8125 C-0.125 39.1875 -0.125 39.1875 -3.625 38.8125 C-5.68221592 35.72667612 -5.89846154 34.87241417 -6.0390625 31.34765625 C-6.07805664 30.47028809 -6.11705078 29.59291992 -6.15722656 28.68896484 C-6.1878418 27.76035645 -6.21845703 26.83174805 -6.25 25.875 C-6.28577148 24.93092285 -6.32154297 23.9868457 -6.35839844 23.01416016 C-6.42604774 21.13640891 -6.48865743 19.25846844 -6.54589844 17.38037109 C-6.61283146 15.20752686 -6.69883099 13.03528271 -6.7890625 10.86328125 C-6.83160156 9.29126953 -6.83160156 9.29126953 -6.875 7.6875 C-6.90078125 6.79804687 -6.9265625 5.90859375 -6.953125 4.9921875 C-6.625 2.8125 -6.625 2.8125 -5.3359375 0.99609375 C-3.625 -0.1875 -3.625 -0.1875 0 0 Z " fill="#FEFEFE" transform="translate(856.625,714.1875)"/>
<path d="M0 0 C2.97 0.99 5.94 1.98 9 3 C8.50881805 31.75647071 0.62226906 60.73755199 -8 88 C-9.25295 83.83196589 -8.4468018 81.26431503 -7.25 77.0625 C-5.47623895 70.48624815 -4.25366103 63.93228577 -3.3125 57.1875 C-3.19358398 56.34131104 -3.07466797 55.49512207 -2.95214844 54.62329102 C-2.61045969 52.0845042 -2.29697202 49.54439383 -2 47 C-1.8596936 45.79887573 -1.8596936 45.79887573 -1.71655273 44.57348633 C-0.77759122 35.51194206 -0.65728243 26.41328685 -0.4375 17.3125 C-0.39420592 15.6282468 -0.35058859 13.94400189 -0.30664062 12.25976562 C-0.20070272 8.17326289 -0.09913075 4.0866733 0 0 Z " fill="#F6F6F6" transform="translate(907,683)"/>
</svg>
