<?xml version="1.0" encoding="UTF-8"?>
<svg version="1.1" xmlns="http://www.w3.org/2000/svg" width="2100" height="2100">
<path d="M0 0 C4.02892056 3.78228294 3.51757226 11.34689416 3.78144836 16.6723938 C3.85923656 24.91794266 2.73755283 32.83156393 0.96894836 40.8598938 C0.81603333 41.57902954 0.66311829 42.29816528 0.50556946 43.03909302 C-0.52599995 47.32556491 -1.64903278 50.01339916 -5.21855164 52.6723938 C-5.88628601 52.78196411 -6.55402039 52.89153442 -7.24198914 53.00442505 C-9.57160422 53.55804208 -9.57160422 53.55804208 -11.00761414 56.55911255 C-11.62932923 57.82129046 -12.24065764 59.08861823 -12.84355164 60.3598938 C-18.1315803 70.84619496 -24.43588522 81.82452731 -34.21855164 88.6723938 C-36.41386414 89.30911255 -36.41386414 89.30911255 -38.21855164 89.6723938 C-38.21855164 90.3323938 -38.21855164 90.9923938 -38.21855164 91.6723938 C-61.84096874 92.51533096 -85.3748717 92.92530613 -109.01087952 92.35299683 C-110.5396517 92.31655606 -112.06848283 92.28249331 -113.59736633 92.25106812 C-139.18467246 91.70627298 -139.18467246 91.70627298 -143.21855164 87.6723938 C-144.42511414 87.3011438 -144.42511414 87.3011438 -145.65605164 86.9223938 C-149.25999168 85.16437427 -149.64421438 83.36595388 -151.21855164 79.6723938 C-152.34763431 76.15106721 -153.30193989 72.58994018 -154.24980164 69.0161438 C-154.52699036 67.99564941 -154.80417908 66.97515503 -155.08976746 65.92373657 C-156.27022025 61.57701788 -157.43582071 57.226351 -158.60282898 52.87600708 C-159.45919823 49.69214346 -160.32307181 46.51038107 -161.18730164 43.3286438 C-161.44676575 42.35036621 -161.70622986 41.37208862 -161.97355652 40.36416626 C-163.30565877 35.46293018 -164.8813356 31.20358841 -167.21855164 26.6723938 C-167.15170602 23.26326744 -167.04270699 21.46935873 -164.55770874 19.06634521 C-161.61621866 17.3134513 -159.25171885 16.98575552 -155.85453796 16.55667114 C-154.54626038 16.38542725 -153.23798279 16.21418335 -151.89006042 16.03775024 C-150.44359746 15.8610352 -148.99710391 15.68457046 -147.55058289 15.5083313 C-146.02835585 15.31384815 -144.50626375 15.11830635 -142.98429871 14.92178345 C-138.86063729 14.39255487 -134.73519388 13.87868408 -130.60921097 13.36791229 C-126.29657841 12.83176293 -121.98558851 12.28270248 -117.67436218 11.73538208 C-109.58008646 10.71006443 -101.48416563 9.6983644 -93.38759899 8.6913166 C-86.24603795 7.80231808 -79.10602892 6.90140321 -71.96643543 5.9967556 C-63.61802517 4.93918707 -55.26840697 3.89141124 -46.91837692 2.84671783 C-44.53939712 2.54844016 -42.16064487 2.24840257 -39.78193665 1.94796753 C-36.03664544 1.47542004 -32.29060679 1.00929395 -28.54391479 0.54798889 C-26.53371152 0.29909986 -24.52424589 0.04427507 -22.51481628 -0.21078491 C-4.10657306 -2.45741942 -4.10657306 -2.45741942 0 0 Z " fill="#020202" transform="translate(1186.2185516357422,676.3276062011719)"/>
<path d="M0 0 C7.58967964 0.08289095 15.00535753 0.81312509 22.5322628 1.76144123 C23.86559131 1.92459832 25.19898787 2.08720016 26.53244591 2.24929523 C30.1196111 2.68724093 33.70566243 3.13372 37.29148626 3.58250165 C40.29352963 3.95756328 43.29604925 4.3287355 46.29855788 4.70005101 C53.37954095 5.57596103 60.45958006 6.45922874 67.53909874 7.34689045 C74.83316451 8.26129646 82.12883448 9.16199111 89.42539537 10.05624896 C95.70695335 10.8266656 101.98734725 11.60611099 108.26690352 12.39267606 C112.01042803 12.86145479 115.75430747 13.32668867 119.4993763 13.78298092 C123.01545752 14.21172313 126.52995063 14.65171472 130.04354668 15.10035419 C131.94399743 15.34018361 133.84589358 15.56847141 135.74780846 15.79639912 C136.88310997 15.94356373 138.01841148 16.09072834 139.18811607 16.24235249 C140.17213087 16.36495095 141.15614567 16.48754942 142.1699791 16.61386299 C145.2426773 17.33384504 147.33423388 18.39047648 149.87845421 20.24850178 C151.48478386 25.03795002 150.52099189 28.76657688 149.22220421 33.54928303 C148.94612328 34.58669384 148.94612328 34.58669384 148.66446495 35.64506245 C148.27452858 37.10807402 147.87977663 38.5698096 147.48050499 40.03030109 C146.89102268 42.20219442 146.32403114 44.37860437 145.76517296 46.55856037 C144.84706659 50.13782325 143.90548533 53.71021679 142.95120811 57.27999592 C142.56448307 58.73573713 142.18276511 60.19281642 141.8057003 61.65108967 C141.24802062 63.8053715 140.67436564 65.95483758 140.09720421 68.10397053 C139.76655968 69.35847004 139.43591515 70.61296955 139.09525108 71.9054842 C137.35717 76.68067367 135.30878332 79.44394165 130.87845421 81.93600178 C129.88845421 82.36912678 128.89845421 82.80225178 127.87845421 83.24850178 C127.25543419 83.59340656 126.63241417 83.93831135 125.99051476 84.29366779 C115.73611522 88.92954302 99.69583891 86.60974469 88.56595421 86.81100178 C87.48307121 86.83085133 86.40018822 86.85070087 85.28449059 86.87115192 C79.83217498 86.96970079 74.37980033 87.06228259 68.92728233 87.1488924 C65.18354116 87.20865331 61.44017686 87.2759669 57.69681358 87.35592365 C53.40330351 87.44759483 49.11011147 87.50760706 44.81595421 87.56100178 C43.59545372 87.59073078 42.37495323 87.62045979 41.11746788 87.65108967 C33.11996108 87.70565859 27.93108334 86.4720216 21.66361046 81.48678303 C14.72576277 73.73086714 8.91933279 63.77931324 5.80423546 53.81100178 C5.49872765 52.96537678 5.19321983 52.11975178 4.87845421 51.24850178 C3.90907921 50.81537678 2.93970421 50.38225178 1.94095421 49.93600178 C-1.42783773 48.07972867 -1.68479488 47.68703648 -2.87154579 44.24850178 C-3.31864435 42.58973966 -3.73449723 40.92229457 -4.12154579 39.24850178 C-4.32650673 38.47893147 -4.53146767 37.70936115 -4.74263954 36.91647053 C-6.18040575 30.62004609 -6.32792001 24.36527794 -6.37154579 17.93600178 C-6.38081093 17.07579426 -6.39007607 16.21558674 -6.39962196 15.32931232 C-6.32715697 0.74111516 -6.32715697 0.74111516 0 0 Z " fill="#020202" transform="translate(781.121545791626,676.7514982223511)"/>
<path d="M0 0 C7.87121479 18.39492115 7.87121479 18.39492115 10 28 C10.226875 28.969375 10.45375 29.93875 10.6875 30.9375 C11.70686134 40.92724111 11.55124824 50.89750352 7 60 C-22.04 60.33 -51.08 60.66 -81 61 C-86.50961538 38.96153846 -86.50961538 38.96153846 -88.75 29.8125 C-89.22373047 27.90887695 -89.22373047 27.90887695 -89.70703125 25.96679688 C-90.00480469 24.74669922 -90.30257813 23.52660156 -90.609375 22.26953125 C-90.87717773 21.18260986 -91.14498047 20.09568848 -91.42089844 18.97583008 C-91.95656887 16.2231796 -92.11516846 13.79348208 -92 11 C-84.63162098 9.16769321 -77.3646199 8.32748714 -69.8125 7.625 C-59.29777397 6.59669293 -48.84287973 5.37311779 -38.375 3.9375 C-29.90477341 2.77894509 -21.43995501 1.64672357 -12.9375 0.75 C-12.18839355 0.66999756 -11.43928711 0.58999512 -10.66748047 0.50756836 C-7.0977142 0.14555798 -3.5883276 -0.08393749 0 0 Z " fill="#85BC7C" transform="translate(1134,695)"/>
<path d="M0 0 C18.76246222 1.44968912 37.42064908 3.60946494 56.10150146 5.8458252 C60.05107675 6.3178383 64.00114753 6.78566866 67.95117188 7.25390625 C75.63459077 8.16529915 83.31747061 9.08113585 91 10 C90.37342059 15.61508504 89.4337122 21.04269949 88.1875 26.55078125 C88.01371826 27.33140427 87.83993652 28.11202728 87.66088867 28.91630554 C87.29618805 30.55112277 86.9297112 32.18554468 86.56152344 33.81958008 C85.99782103 36.32217366 85.43987291 38.82599857 84.8828125 41.33007812 C84.52637501 42.92455372 84.16961563 44.5189574 83.8125 46.11328125 C83.64580811 46.86015701 83.47911621 47.60703278 83.30737305 48.37654114 C82.64616373 51.30484175 81.95007736 54.14976792 81 57 C80.34141495 56.98747192 79.6828299 56.97494385 79.00428772 56.96203613 C72.00966369 56.82945016 65.01498279 56.70022229 58.02026367 56.57275391 C55.42649842 56.52507381 52.83274761 56.47660008 50.23901367 56.42724609 C33.15723567 56.10288759 16.08492302 55.92542779 -1 56 C-1.81752303 54.41925436 -2.62881997 52.83528777 -3.4375 51.25 C-3.88996094 50.36828125 -4.34242188 49.4865625 -4.80859375 48.578125 C-9.95520592 37.44119375 -8.24496449 20.98517038 -4.16796875 9.75390625 C-2.78744089 6.49881547 -1.39342901 3.24958611 0 0 Z " fill="#86BD7C" transform="translate(820,695)"/>
<path d="M0 0 C24.45076411 -0.03693469 47.2582327 13.08834481 67.06738281 26.19335938 C69.1210527 27.53846549 71.19125323 28.85502861 73.265625 30.16796875 C95.74192697 44.43111094 95.74192697 44.43111094 100.9609375 52.43359375 C101.4609375 55.68359375 101.4609375 55.68359375 100.9609375 58.43359375 C97.66252493 60.63253546 96.78603558 60.96966589 92.9609375 60.43359375 C90.25390625 58.80859375 90.25390625 58.80859375 87.1484375 56.43359375 C85.91290631 55.5145206 84.67438407 54.59946061 83.43359375 53.6875 C82.73637207 53.17461426 82.03915039 52.66172852 81.32080078 52.13330078 C55.93451783 33.84866371 30.38562841 18.43622228 -0.5546875 12.14453125 C-1.37453125 11.90992188 -2.194375 11.6753125 -3.0390625 11.43359375 C-4.42456447 8.66258981 -4.2268092 6.50012315 -4.0390625 3.43359375 C-2.0390625 0.43359375 -2.0390625 0.43359375 0 0 Z " fill="#000000" transform="translate(1063.0390625,570.56640625)"/>
<path d="M0 0 C0.92613098 0.10784317 0.92613098 0.10784317 1.87097168 0.21786499 C14.57517767 1.69518929 27.28167943 3.14998959 39.99325562 4.56247711 C42.03502245 4.78948192 44.07672637 5.01704403 46.1184082 5.24481201 C46.79569473 5.32036694 47.47298126 5.39592186 48.17079163 5.47376633 C49.54069709 5.62660423 50.91060066 5.77945913 52.28050232 5.93233109 C55.78282986 6.32293042 59.28531226 6.71205336 62.78808594 7.09863281 C65.58613528 7.4075156 68.3839494 7.7183835 71.18151855 8.03158569 C73.7831552 8.32284259 76.38511567 8.6112248 78.98742676 8.89639282 C80.72325012 9.09197281 80.72325012 9.09197281 82.49414062 9.29150391 C83.51270142 9.40458893 84.53126221 9.51767395 85.58068848 9.63418579 C88 10 88 10 90 11 C89.85831863 12.43791516 89.71148957 13.8753237 89.5625 15.3125 C89.44068359 16.51326172 89.44068359 16.51326172 89.31640625 17.73828125 C89 20 89 20 88 23 C87.34141495 22.98747192 86.6828299 22.97494385 86.00428772 22.96203613 C79.00966369 22.82945016 72.01498279 22.70022229 65.02026367 22.57275391 C62.42649842 22.52507381 59.83274761 22.47660008 57.23901367 22.42724609 C40.15723567 22.10288759 23.08492302 21.92542779 6 22 C5.18247697 20.41925436 4.37118003 18.83528777 3.5625 17.25 C3.11003906 16.36828125 2.65757812 15.4865625 2.19140625 14.578125 C-0.12258027 9.5708099 -0.09077518 5.44651064 0 0 Z " fill="#D6F9D0" transform="translate(813,729)"/>
<path d="M0 0 C0.0818935 2.18685984 0.13959048 4.37463182 0.1875 6.5625 C0.23970703 8.38974609 0.23970703 8.38974609 0.29296875 10.25390625 C0 14 0 14 -3 21 C-32.04 21.33 -61.08 21.66 -91 22 C-93 15 -93 15 -93 11 C-81.76079346 9.56136474 -70.52107852 8.12677589 -59.28069878 6.69733429 C-54.06122558 6.0334439 -48.84193697 5.36816699 -43.62304688 4.69970703 C-38.58547795 4.0545236 -33.54745505 3.41300113 -28.50909805 2.77400208 C-26.58803859 2.52970904 -24.66714565 2.28410279 -22.74642563 2.03715515 C-20.05387448 1.69120203 -17.36076633 1.34994478 -14.66748047 1.00976562 C-13.87553787 0.9069075 -13.08359528 0.80404938 -12.26765442 0.69807434 C-8.1474948 0.18293878 -4.16298457 -0.10687438 0 0 Z " fill="#D6F8CE" transform="translate(1144,734)"/>
<path d="M0 0 C0.27524524 18.07443739 0.27524524 18.07443739 -2.0625 23.4375 C-3.54767761 27.49698546 -3.47266089 31.7251993 -3 36 C-2.5978125 36.62003906 -2.195625 37.24007812 -1.78125 37.87890625 C-1 40 -1 40 -2.203125 43.1796875 C-2.86568732 44.42218196 -3.54953893 45.65346998 -4.25 46.875 C-4.61407959 47.52976318 -4.97815918 48.18452637 -5.35327148 48.85913086 C-10.87068056 58.5532593 -16.93066532 68.29657872 -26 75 C-26.66 74.67 -27.32 74.34 -28 74 C-27.74605469 73.47792969 -27.49210937 72.95585938 -27.23046875 72.41796875 C-18.74638559 54.27410552 -19.84776717 36.94365277 -25.84765625 18.12890625 C-27.28738191 14.21968505 -29.05966008 10.58297498 -31.046875 6.92578125 C-32 5 -32 5 -32 3 C-28.16772354 2.49167358 -24.33403696 1.99485826 -20.5 1.5 C-18.88351562 1.28537109 -18.88351562 1.28537109 -17.234375 1.06640625 C-11.43522303 0.32383191 -5.84610901 -0.17027502 0 0 Z " fill="#FBFBFB" transform="translate(1178,690)"/>
<path d="M0 0 C0.99 0.66 1.98 1.32 3 2 C3.5625 4.875 3.5625 4.875 3 8 C-1.65533642 11.82772105 -6.43612387 13.21179582 -12.1875 14.75 C-37.18159475 21.87638694 -64.15815893 33.8038299 -81.55078125 53.78125 C-83 55 -83 55 -86.6875 54.6875 C-87.780625 54.460625 -88.87375 54.23375 -90 54 C-90.84015151 51.31151518 -91.26178353 49.74872707 -91 47 C-77.78234768 23.6037906 -39.26435663 9.95000198 -15.4375 2.625 C-14.59219727 2.36187012 -13.74689453 2.09874023 -12.87597656 1.82763672 C-8.50387887 0.52789476 -4.60777079 -0.51274442 0 0 Z " fill="#000000" transform="translate(872,571)"/>
<path d="M0 0 C8.50262969 -0.36011137 16.61090382 0.7472283 25 2 C24.60167969 2.81082031 24.20335937 3.62164063 23.79296875 4.45703125 C14.99478691 22.84544535 13.37594843 39.66981314 20 59 C21.73183784 63.14054831 23.78343661 67.09884843 26 71 C20.09839627 70.14542365 17.6156923 67.59230197 14 63 C8.90970065 55.1657869 3.22538053 46.09870774 1 37 C1.75524046 34.90690501 2.434403 33.565597 4 32 C3.6106509 26.35443803 2.6043634 20.97318843 1.4375 15.4375 C0.3386968 10.13550786 -0.33041549 5.39678626 0 0 Z " fill="#F9F9F9" transform="translate(785,691)"/>
<path d="M0 0 C-0.41994602 8.52689219 -2.53784361 16.38245263 -4.875 24.5625 C-5.22691406 25.82513672 -5.57882812 27.08777344 -5.94140625 28.38867188 C-7.43111864 33.69127266 -8.94938376 38.98643509 -10.59765625 44.2421875 C-10.80914307 44.91749512 -11.02062988 45.59280273 -11.23852539 46.28857422 C-12.48680779 49.09410792 -14.41379363 50.47480137 -17 52 C-17.66 52 -18.32 52 -19 52 C-18.27352078 45.00985236 -16.92038058 38.17803282 -15.52587891 31.29321289 C-15.12952835 29.33487424 -14.73856068 27.37544865 -14.34765625 25.41601562 C-12.70394797 17.24290334 -10.92255315 9.11200599 -9 1 C-2.25 0 -2.25 0 0 0 Z " fill="#F9F9F9" transform="translate(930,706)"/>
<path d="M0 0 C2.64 0.33 5.28 0.66 8 1 C11.42903762 8.91396792 12.84122003 17.27149805 14.5 25.6875 C15.09094974 28.65030419 15.68557559 31.6123612 16.28125 34.57421875 C16.42433594 35.288591 16.56742188 36.00296326 16.71484375 36.73898315 C18.01639851 43.18990637 19.47286981 49.59849958 21 56 C18.6875 55.875 18.6875 55.875 16 55 C12.63908755 50.03553485 11.4183575 43.93369906 9.86328125 38.203125 C9.57897751 37.17314392 9.29467377 36.14316284 9.00175476 35.08197021 C8.40472659 32.91434043 7.81069335 30.74588379 7.21948242 28.57666016 C6.31135643 25.24580557 5.39377175 21.91766783 4.47460938 18.58984375 C3.89528029 16.48192275 3.31648543 14.37385484 2.73828125 12.265625 C2.46333328 11.26670227 2.18838531 10.26777954 1.90510559 9.23858643 C1.65451889 8.3171283 1.40393219 7.39567017 1.14575195 6.44628906 C0.92385696 5.63387756 0.70196198 4.82146606 0.4733429 3.98443604 C0 2 0 2 0 0 Z " fill="#FAFAFA" transform="translate(1022,707)"/>
</svg>
