<?xml version="1.0" encoding="UTF-8"?>
<svg version="1.1" xmlns="http://www.w3.org/2000/svg" width="2100" height="2100">
<path d="M0 0 C2.05594735 0.87383539 2.05594735 0.87383539 4.515625 -0.640625 C5.44503906 -1.28644531 6.37445312 -1.93226563 7.33203125 -2.59765625 C8.25886719 -3.23058594 9.18570312 -3.86351562 10.140625 -4.515625 C11.04941406 -5.14082031 11.95820312 -5.76601563 12.89453125 -6.41015625 C17.53181535 -9.42742844 17.53181535 -9.42742844 20.51953125 -9.28515625 C23.20044751 -8.29745026 24.36063004 -7.83210552 25.89453125 -5.41015625 C26.58203125 -2.16015625 26.58203125 -2.16015625 25.89453125 1.58984375 C23.49578429 4.29319349 20.7625147 6.40718164 17.89453125 8.58984375 C17.23453125 9.24984375 16.57453125 9.90984375 15.89453125 10.58984375 C16.71695312 11.27949219 17.539375 11.96914063 18.38671875 12.6796875 C21.32998849 15.1529378 24.25965591 17.64179984 27.18457031 20.13671875 C28.67176354 21.40053572 30.16900811 22.65250615 31.66796875 23.90234375 C39.49820812 30.62103494 48.18933636 39.34874881 50.89453125 49.58984375 C51.05768577 52.76591842 50.86951577 55.55329556 49.89453125 58.58984375 C46.82129703 61.82482714 44.07466232 63.39834575 39.58203125 63.79296875 C32.54249906 63.91575129 26.5852709 62.69658331 19.89453125 60.58984375 C19.7337207 61.17362793 19.57291016 61.75741211 19.40722656 62.35888672 C18.65885317 65.06253238 17.90173669 67.76365895 17.14453125 70.46484375 C16.76554687 71.8415625 16.76554687 71.8415625 16.37890625 73.24609375 C14.60498935 79.54349873 12.44563692 85.56576303 9.89453125 91.58984375 C10.69890625 91.77546875 11.50328125 91.96109375 12.33203125 92.15234375 C20.73185099 95.5417447 26.7518547 101.58560084 30.89453125 109.58984375 C32.96958815 116.0840033 32.71460206 122.57886597 29.89453125 128.77734375 C24.73255479 138.00238852 16.0921861 143.29018619 6.1940918 146.45263672 C-1.14991849 148.39636193 -7.95976803 149.06758124 -15.54296875 148.96484375 C-16.63971924 148.95396729 -17.73646973 148.94309082 -18.86645508 148.93188477 C-34.633414 148.62144238 -49.26672929 144.55225194 -61.10546875 133.58984375 C-62.96875 131.0546875 -62.96875 131.0546875 -64.41796875 128.52734375 C-64.90910156 127.69074219 -65.40023438 126.85414063 -65.90625 125.9921875 C-68.17856247 121.44016089 -68.20328654 117.67636898 -68.10546875 112.58984375 C-69.14445312 112.03296875 -70.1834375 111.47609375 -71.25390625 110.90234375 C-85.99581407 102.88801326 -98.79348304 94.77853169 -104.37890625 78.16796875 C-109.41291475 60.30535796 -106.02329075 39.58825287 -103.10546875 21.58984375 C-103.60046875 22.08484375 -103.60046875 22.08484375 -104.10546875 22.58984375 C-106.1015625 22.7578125 -106.1015625 22.7578125 -108.54296875 22.77734375 C-109.34605469 22.79152344 -110.14914062 22.80570313 -110.9765625 22.8203125 C-113.10546875 22.58984375 -113.10546875 22.58984375 -115.10546875 20.58984375 C-115.73046875 17.96484375 -115.73046875 17.96484375 -115.10546875 14.58984375 C-105.00274338 0.13564329 -82.80853795 -8.81454593 -66.28149414 -11.94506836 C-44.37639479 -15.15278719 -18.842987 -12.6202566 0 0 Z " fill="#010101" transform="translate(1148.10546875,679.41015625)"/>
<path d="M0 0 C21.96713868 -0.58906294 40.84509683 7.04848459 56.76171875 22.02734375 C57.4784375 22.72988281 58.19515625 23.43242188 58.93359375 24.15625 C59.5059375 24.70410156 60.07828125 25.25195312 60.66796875 25.81640625 C63.27273535 28.5601913 63.92757376 30.09605009 64.30859375 33.90625 C63.93359375 37.15625 63.93359375 37.15625 62.93359375 39.15625 C56.18359375 39.28125 56.18359375 39.28125 53.93359375 38.15625 C54.06991211 38.98310303 54.06991211 38.98310303 54.20898438 39.82666016 C60.30672288 77.74990307 60.30672288 77.74990307 53.93359375 93.15625 C53.67835938 93.85234375 53.423125 94.5484375 53.16015625 95.265625 C50.03616044 102.6600371 43.52386723 108.73015531 36.93359375 113.15625 C36.27359375 113.15625 35.61359375 113.15625 34.93359375 113.15625 C35.09085938 113.71054687 35.248125 114.26484375 35.41015625 114.8359375 C37.12260443 122.42693914 36.3805992 129.11039599 32.52734375 135.875 C25.41067737 146.0616009 13.09340208 151.007869 1.28515625 153.625 C-17.85345534 156.65862608 -37.98386023 155.59996884 -54.73828125 144.92578125 C-60.32427445 140.68005152 -65.89987065 135.30128057 -67.06640625 128.15625 C-67.79704701 121.19159377 -67.06263092 115.9868073 -63.06640625 110.15625 C-59.31474018 105.77930626 -54.71836709 102.5153582 -50.06640625 99.15625 C-50.60910156 98.01027344 -51.15179687 96.86429688 -51.7109375 95.68359375 C-52.43365906 94.15367668 -53.15631164 92.62372703 -53.87890625 91.09375 C-54.41354492 89.96549805 -54.41354492 89.96549805 -54.95898438 88.81445312 C-57.09007015 84.29811537 -59.12873961 79.75897234 -61.06640625 75.15625 C-62.55140625 75.65125 -62.55140625 75.65125 -64.06640625 76.15625 C-66.51998635 76.35366449 -68.98069944 76.46840287 -71.44140625 76.53125 C-72.74851562 76.58023438 -74.055625 76.62921875 -75.40234375 76.6796875 C-79.93794099 76.03174504 -81.30322025 74.73547972 -84.06640625 71.15625 C-85.73456048 65.36677357 -85.06072166 61.37574755 -82.60546875 55.9140625 C-76.71662695 45.36197542 -68.17395819 36.8887345 -59.53662109 28.578125 C-57.35180721 26.46514658 -55.20961557 24.31134403 -53.06640625 22.15625 C-53.62328125 21.929375 -54.18015625 21.7025 -54.75390625 21.46875 C-57.7033538 19.79473923 -59.74163315 17.60668651 -62.06640625 15.15625 C-62.39640625 14.82625 -62.72640625 14.49625 -63.06640625 14.15625 C-63.35501007 10.90945705 -63.34717187 8.74897742 -61.94140625 5.78125 C-60.06640625 4.15625 -60.06640625 4.15625 -57.26953125 3.80859375 C-53.30689992 4.23868422 -51.88778224 5.46602596 -48.94140625 8.09375 C-45.03954984 11.84929304 -45.03954984 11.84929304 -40.06640625 13.15625 C-37.66209023 12.01316609 -35.46798686 10.82592542 -33.19140625 9.46875 C-22.7515894 3.5714391 -11.96289485 0.60957426 0 0 Z " fill="#010101" transform="translate(853.06640625,662.84375)"/>
<path d="M0 0 C2.5474364 3.08208355 3.22692994 6.12033358 4 10 C4.14083008 10.63631348 4.28166016 11.27262695 4.42675781 11.92822266 C9.36708891 34.58286729 9.82275605 65.09367912 -1.56640625 85.85546875 C-4.99948445 91.177892 -8.02135097 94.77067324 -14 97 C-28.96964262 99.66001211 -49.94282241 91.50260296 -62 83.125 C-71.39696153 75.76964023 -76.32538912 68.83877086 -78 57 C-79.30917859 39.76605894 -77.91547396 15.57805738 -70 0 C-53.54392629 -12.96359764 -17.16221946 -10.77566613 0 0 Z " fill="#AEE6FC" transform="translate(1134,687)"/>
<path d="M0 0 C1.57421875 3.046875 1.57421875 3.046875 2.6875 6.75 C2.98865723 7.73939575 2.98865723 7.73939575 3.29589844 8.7487793 C8.25231621 25.58343982 14.86706996 53.50534298 6 70 C-2.25101195 82.76438601 -18.57458278 89.22189052 -32.83984375 92.4921875 C-47.21807269 94.80265692 -47.21807269 94.80265692 -52.71875 91.23828125 C-64.85540952 79.33022319 -65.9690605 60.52025233 -66.203125 44.45703125 C-66.22306402 42.05847448 -66.23447362 39.66010694 -66.24023438 37.26147461 C-66.24991119 34.83477099 -66.28100931 32.40892689 -66.3125 29.98242188 C-66.45393366 9.98082471 -66.45393366 9.98082471 -63 1 C-59.5572286 -1.8370824 -56.28979518 -2.90299131 -52 -4 C-50.63488281 -4.46599609 -50.63488281 -4.46599609 -49.2421875 -4.94140625 C-34.38348662 -9.55629524 -13.26666459 -8.7235478 0 0 Z " fill="#AEE7FD" transform="translate(888,683)"/>
<path d="M0 0 C8.87177041 8.67798897 13.51027114 19.73380188 14.265625 32.06640625 C13.45347835 44.0933426 8.58740902 55.96334651 4 67 C4.804375 67.185625 5.60875 67.37125 6.4375 67.5625 C14.83731974 70.95190095 20.85732345 76.99575709 25 85 C27.0750569 91.49415955 26.82007081 97.98902222 24 104.1875 C18.83802354 113.41254477 10.19765485 118.70034244 0.29956055 121.86279297 C-7.04444974 123.80651818 -13.85429928 124.47773749 -21.4375 124.375 C-22.53425049 124.36412354 -23.63100098 124.35324707 -24.76098633 124.34204102 C-40.52794525 124.03159863 -55.16126054 119.96240819 -67 109 C-68.86328125 106.46484375 -68.86328125 106.46484375 -70.3125 103.9375 C-70.80363281 103.10089844 -71.29476563 102.26429688 -71.80078125 101.40234375 C-74.06793689 96.86064759 -74.09733857 93.06160557 -74 88 C-71.19379378 86.59689689 -69.54126421 87.64353408 -66.6940918 88.58911133 C-65.9906665 88.82782959 -65.28724121 89.06654785 -64.5625 89.3125 C-51.35949932 93.59467371 -37.2418975 97.02099223 -24 91 C-10.17340768 82.74431623 -6.01188368 68.81543893 -2 54 C0.28292559 42.20665829 0.2420504 30.51820492 0.125 18.5625 C0.11493873 16.75195814 0.10581851 14.94141079 0.09765625 13.13085938 C0.07591823 8.75376742 0.04156645 4.3769467 0 0 Z " fill="#E9C4C3" transform="translate(1154,704)"/>
<path d="M0 0 C0.33 0 0.66 0 1 0 C0.83886719 1.15242187 0.67773438 2.30484375 0.51171875 3.4921875 C-0.20284237 9.96497299 -0.18603616 16.45005277 -0.18530273 22.95410156 C-0.18747451 25.09981587 -0.20564554 27.24500214 -0.22460938 29.390625 C-0.30353251 48.23876887 1.70393924 68.75603585 14.3125 83.75 C23.22659979 91.21296727 30.39361856 92.81508712 42 92 C52.93441111 89.9963121 65.68832238 86.20778508 75 80 C75.99 80 76.98 80 78 80 C80.15689528 86.47068583 79.83156719 93.04525712 77 99.25 C70.6532333 110.39210154 59.25315038 115.38432437 47.3125 118.8125 C27.65830173 123.16857561 5.59680013 121.77134847 -11.671875 110.76953125 C-17.2578682 106.52380152 -22.8334644 101.14503057 -24 94 C-24.73064076 87.03534377 -23.99622467 81.8305573 -20 76 C-16.24833393 71.62305626 -11.65196084 68.3591082 -7 65 C-7.55429687 63.87722656 -8.10859375 62.75445313 -8.6796875 61.59765625 C-9.41195618 60.08617859 -10.1436989 58.57444604 -10.875 57.0625 C-11.23980469 56.32708984 -11.60460937 55.59167969 -11.98046875 54.83398438 C-14.37449456 49.85005792 -16.72018205 44.59565595 -17 39 C-16.34 38.01 -15.68 37.02 -15 36 C-14.48332852 33.65794519 -14.03370693 31.30078771 -13.625 28.9375 C-11.44917539 17.43769577 -7.53042729 9.06408411 0 0 Z " fill="#E9C4C3" transform="translate(810,697)"/>
<path d="M0 0 C2.5474364 3.08208355 3.22692994 6.12033358 4 10 C4.14083008 10.63631348 4.28166016 11.27262695 4.42675781 11.92822266 C7.64151226 26.66997137 7.66566923 41.0463575 6.125 56 C6.00765503 57.15822266 6.00765503 57.15822266 5.88793945 58.33984375 C5.24883058 63.75116942 5.24883058 63.75116942 3 66 C2.78085938 65.3709375 2.56171875 64.741875 2.3359375 64.09375 C-1.85760037 52.77460714 -8.05308999 45.473455 -19 40 C-18.96519531 39.25234375 -18.93039062 38.5046875 -18.89453125 37.734375 C-18.85392578 36.25710938 -18.85392578 36.25710938 -18.8125 34.75 C-18.77769531 33.77546875 -18.74289062 32.8009375 -18.70703125 31.796875 C-19.04773904 28.54425134 -19.66299959 27.26429373 -22 25 C-24.97595585 23.91165043 -27.85002364 23.74649163 -31 24 C-34.29248108 25.83317376 -34.29248108 25.83317376 -37 28 C-41 28 -41 28 -42.75 26.5625 C-45.98612096 24.31519378 -49.08909603 23.86782233 -53 24 C-55.92347192 25.20752101 -57.42025385 26.18835539 -59.25 28.75 C-60.18117216 31.14823177 -60.18117216 31.14823177 -60 34.4375 C-61 38 -61 38 -63.0390625 39.38671875 C-64.79125229 40.22575827 -66.5606371 41.02963616 -68.34375 41.80078125 C-71.96144462 43.43406397 -74.84925836 45.60269658 -78 48 C-77.7341458 38.72168834 -76.78153796 29.75771443 -75.125 20.625 C-74.96354492 19.72313965 -74.80208984 18.8212793 -74.63574219 17.89208984 C-71.51522604 1.35335426 -71.51522604 1.35335426 -67.76953125 -1.9921875 C-47.39498569 -9.40633807 -19.38748615 -12.17284735 0 0 Z " fill="#74A8BB" transform="translate(1134,687)"/>
<path d="M0 0 C1.57421875 3.046875 1.57421875 3.046875 2.6875 6.75 C2.88754639 7.40887207 3.08759277 8.06774414 3.29370117 8.74658203 C6.20158621 18.6430176 8.54556012 28.6343578 8 39 C7.34773437 38.66226563 6.69546875 38.32453125 6.0234375 37.9765625 C0.46883882 35.10719994 0.46883882 35.10719994 -5.4375 33.125 C-8 32 -8 32 -9.8125 28.4375 C-10.204375 27.303125 -10.59625 26.16875 -11 25 C-12.55030118 23.44969882 -14.03676001 23.75594901 -16.1875 23.6875 C-21.01307822 23.71062577 -23.31629921 24.97747628 -27 28 C-27.825 27.34 -28.65 26.68 -29.5 26 C-33.39584875 23.38117531 -36.39164993 23.62226639 -41 24 C-41.99 24.33 -42.98 24.66 -44 25 C-44.97771193 27.9331358 -45.13419011 29.88178994 -45.125 32.9375 C-45.12757813 33.79214844 -45.13015625 34.64679687 -45.1328125 35.52734375 C-45.00930254 37.82680852 -44.64420687 39.79640348 -44 42 C-44.71285156 42.53367187 -45.42570313 43.06734375 -46.16015625 43.6171875 C-52.78485463 48.77072137 -57.58946563 53.87627977 -62 61 C-62.66 61.99 -63.32 62.98 -64 64 C-68.37800953 59.62199047 -66.2254169 43.43110197 -66.24023438 37.26147461 C-66.24991119 34.83477099 -66.28100931 32.40892689 -66.3125 29.98242188 C-66.45393366 9.98082471 -66.45393366 9.98082471 -63 1 C-59.5572286 -1.8370824 -56.28979518 -2.90299131 -52 -4 C-50.63488281 -4.46599609 -50.63488281 -4.46599609 -49.2421875 -4.94140625 C-34.38348662 -9.55629524 -13.26666459 -8.7235478 0 0 Z " fill="#74A8BB" transform="translate(888,683)"/>
<path d="M0 0 C3 2.0625 3 2.0625 5 4 C7.26546516 2.90922048 9.18647467 1.85614811 11.1875 0.3125 C15.28629303 -1.60027008 18.70605566 -1.28177443 23 0 C25.70506381 2.11126931 26.67023539 3.57296555 27.44140625 6.91015625 C28.05377946 14.08925495 24.8608743 20.13538081 21 26 C16.70971934 30.73410279 12.17556825 34.51145104 5.75 35.5 C-1.71437892 34.50474948 -6.85010766 28.66904928 -11.5234375 23.078125 C-14.93024113 18.28336433 -16.89901511 12.90781357 -16 7 C-14.37743711 3.98666891 -12.89925309 1.73867218 -10.25 -0.4375 C-6.72236597 -1.31940851 -3.45344444 -0.97790605 0 0 Z " fill="#FEFEFE" transform="translate(1089,711)"/>
<path d="M0 0 C2.56386718 1.12713406 4.65350909 2.43567272 7 4 C7.639375 3.34 8.27875 2.68 8.9375 2 C12.53604825 -0.35007233 14.68945839 -0.65927382 18.90625 -0.44140625 C21 0 21 0 23.5625 2 C25.4061559 5.8476297 25.83884577 8.87029776 25 13 C21.67065611 21.63260709 17.48701344 28.04914891 9 32 C5.15130856 32.62835779 3.51056782 32.27157863 0.0625 30.4375 C-6.01553713 25.59987861 -12.18492979 20.67801722 -13.34765625 12.578125 C-13.60488489 8.11949518 -13.44730968 5.69892137 -11 1.875 C-7.24106115 -0.47433678 -4.26373627 -0.90906075 0 0 Z " fill="#FEFEFE" transform="translate(855,706)"/>
<path d="M0 0 C0.33 0 0.66 0 1 0 C0.83886719 1.15242187 0.67773438 2.30484375 0.51171875 3.4921875 C-0.20284237 9.96497299 -0.18603616 16.45005277 -0.18530273 22.95410156 C-0.18747451 25.09981587 -0.20564554 27.24500214 -0.22460938 29.390625 C-0.30085484 47.59929763 1.95221207 65.34110972 12 81 C12.39703125 81.61875 12.7940625 82.2375 13.203125 82.875 C14.11571004 84.26315752 15.05439287 85.63412303 16 87 C1.48032693 80.26670106 -8.49800031 64.45608917 -14.25439453 50.11523438 C-15.52091922 46.52218595 -16.76508616 42.81723177 -17 39 C-16.34 38.01 -15.68 37.02 -15 36 C-14.48332852 33.65794519 -14.03370693 31.30078771 -13.625 28.9375 C-11.44917539 17.43769577 -7.53042729 9.06408411 0 0 Z " fill="#F8F8F8" transform="translate(810,697)"/>
<path d="M0 0 C8.86702269 8.67334495 13.52103583 19.73621407 14.26171875 32.06640625 C12.93160326 52.05784351 2.89105411 71.01433977 -11.42578125 84.73046875 C-13.46140939 86.37210435 -15.48294712 87.31353103 -18 88 C-17.63648438 87.56171875 -17.27296875 87.1234375 -16.8984375 86.671875 C-1.15986698 66.81706296 0.36284084 42.85592243 0.125 18.5625 C0.11493873 16.75195814 0.10581851 14.94141079 0.09765625 13.13085938 C0.07591823 8.75376742 0.04156645 4.3769467 0 0 Z " fill="#F7F7F7" transform="translate(1154,704)"/>
</svg>
