<?xml version="1.0" encoding="UTF-8"?>
<svg version="1.1" xmlns="http://www.w3.org/2000/svg" width="2100" height="2100">
<path d="M0 0 C1.85915108 1.387817 3.70394864 2.789371 5.53125 4.21875 C5.88316406 3.64125 6.23507812 3.06375 6.59765625 2.46875 C8.11879819 0.18107962 9.58912853 -1.83488809 11.53125 -3.78125 C15.21652513 -4.46833519 17.17468197 -4.5251744 20.46875 -2.71875 C22.22503173 0.48388139 21.99774427 2.60341944 21.53125 6.21875 C20.32701241 8.62317052 19.00120383 10.85673372 17.52734375 13.10546875 C16.28928906 15.73208673 16.64664642 16.51164227 17.53125 19.21875 C18.14064407 20.45638366 18.7972115 21.67159901 19.4921875 22.86328125 C19.88148438 23.54068359 20.27078125 24.21808594 20.671875 24.91601562 C21.28289062 25.96305664 21.28289062 25.96305664 21.90625 27.03125 C24.79622995 31.99548975 27.37217012 36.89069804 29.53125 42.21875 C30.46066406 42.03957031 31.39007812 41.86039063 32.34765625 41.67578125 C44.85652175 39.52357811 44.85652175 39.52357811 50.53125 43.21875 C52.09555248 46.34735495 51.88752284 48.77477925 51.53125 52.21875 C48.0328956 56.26372228 43.66076533 57.44371389 38.53125 58.21875 C37.21125 58.21875 35.89125 58.21875 34.53125 58.21875 C34.73621094 59.05277344 34.94117188 59.88679687 35.15234375 60.74609375 C37.40324114 70.14816754 38.60387283 78.80876749 38.78125 88.46875 C38.81351685 89.49802612 38.81351685 89.49802612 38.84643555 90.5480957 C38.8748202 94.93272083 38.41409101 97.84588966 35.53125 101.21875 C33.33984375 101.9609375 33.33984375 101.9609375 30.96875 102.09375 C30.18371094 102.15304687 29.39867187 102.21234375 28.58984375 102.2734375 C26.53125 102.21875 26.53125 102.21875 24.53125 101.21875 C24.49 102.311875 24.44875 103.405 24.40625 104.53125 C23.08072212 115.06079543 15.48709652 124.16141933 7.48046875 130.62109375 C2.68041186 134.30611362 -2.27087349 136.73243844 -7.84375 139.03125 C-8.71257812 139.41216797 -9.58140625 139.79308594 -10.4765625 140.18554688 C-19.88492059 144.15904722 -29.05123654 145.56537912 -39.21875 145.40625 C-40.01667969 145.40560547 -40.81460937 145.40496094 -41.63671875 145.40429688 C-46.34228118 145.36952671 -50.82756477 144.99434914 -55.46875 144.21875 C-55.46875 143.55875 -55.46875 142.89875 -55.46875 142.21875 C-56.75007813 142.11820313 -58.03140625 142.01765625 -59.3515625 141.9140625 C-64.62013999 141.32271258 -69.36597214 139.87403196 -74.34375 138.09375 C-75.22071533 137.78026611 -76.09768066 137.46678223 -77.0012207 137.14379883 C-92.77074985 131.30490971 -102.90781038 121.98143136 -110.03515625 106.72265625 C-112.12349108 101.61847002 -113.50010701 96.64178646 -114.46875 91.21875 C-114.77425781 89.51138672 -114.77425781 89.51138672 -115.0859375 87.76953125 C-116.61914396 77.88770058 -116.67442905 68.19418411 -116.46875 58.21875 C-117.5825 58.115625 -118.69625 58.0125 -119.84375 57.90625 C-121.04 57.679375 -122.23625 57.4525 -123.46875 57.21875 C-125.76227146 53.7784678 -125.54068057 52.33350139 -124.91845703 48.36376953 C-124.21599977 45.01317804 -123.13972007 41.84009937 -121.90625 38.65625 C-121.64376465 37.97224121 -121.3812793 37.28823242 -121.11083984 36.58349609 C-116.55296224 25.06314962 -110.83194137 14.44763216 -102.46875 5.21875 C-101.71980469 4.37699219 -100.97085937 3.53523437 -100.19921875 2.66796875 C-72.35364438 -26.97699654 -30.59847795 -22.07738282 0 0 Z " fill="#040404" transform="translate(1146.46875,652.78125)"/>
<path d="M0 0 C15.11919406 12.63693831 24.29580647 30.46335978 30 49.0625 C30.22010742 49.76479736 30.44021484 50.46709473 30.66699219 51.19067383 C31.88485166 55.43533228 32.55882727 58.80456254 31 63 C27.9375 64.875 27.9375 64.875 25 66 C25.16048828 67.40185547 25.16048828 67.40185547 25.32421875 68.83203125 C26.34332449 79.9983619 25.2284084 90.04114664 23 101 C22.85933105 101.7228418 22.71866211 102.44568359 22.57373047 103.19042969 C20.03719878 115.91717618 15.82187594 128.07275514 5.25390625 136.37109375 C-4.32461261 142.4102061 -14.27396698 146.1375979 -25.3125 148.375 C-26.54758301 148.62648804 -26.54758301 148.62648804 -27.80761719 148.88305664 C-45.06259413 152.09800062 -67.76835537 147.51792041 -82.578125 137.859375 C-93.21028837 129.55118177 -96.86708017 121.15300562 -99 108 C-101.0745356 107.8509288 -101.0745356 107.8509288 -103 109 C-106.73671591 109.34599221 -109.11909553 109.53317902 -112.375 107.5625 C-116.40453957 101.20822606 -114.95685042 92.71693552 -114.1875 85.5625 C-114.10435547 84.68529297 -114.02121094 83.80808594 -113.93554688 82.90429688 C-113.32411963 76.8480431 -112.29566196 70.94597738 -111 65 C-112.216875 64.896875 -113.43375 64.79375 -114.6875 64.6875 C-119.48876545 64.09265295 -122.57013629 62.42986371 -126 59 C-126.41652031 55.25131724 -126.4979164 52.88266999 -124.625 49.5625 C-120.54482256 47.13382295 -116.63094713 47.49030456 -112 48 C-108.375 49 -108.375 49 -106 50 C-105.67 48.845 -105.34 47.69 -105 46.5 C-103.1821587 40.90390032 -100.43828352 35.81253478 -97.60546875 30.67382812 C-96.04389512 27.72066766 -94.96319683 25.60768017 -95.16796875 22.2265625 C-95.87877732 20.32439873 -96.70938266 18.46773346 -97.5625 16.625 C-99.11044636 12.7214831 -99.47960988 10.15661898 -99 6 C-97.875 4.0625 -97.875 4.0625 -96 3 C-93.1875 2.3125 -93.1875 2.3125 -90 3 C-87.64845179 5.44752977 -85.80487627 8.13267883 -84 11 C-82.700625 9.5459375 -82.700625 9.5459375 -81.375 8.0625 C-59.62464147 -13.46948144 -25.19180442 -18.12457338 0 0 Z " fill="#030303" transform="translate(896,642)"/>
<path d="M0 0 C16.28593123 10.73157153 22.9704408 27.75582094 27.05859375 46.046875 C30.15028485 61.2346955 31.68176739 79.96016884 23.3828125 93.65234375 C18.80087332 99.56661985 12.61615612 102.49041591 5.27294922 103.61987305 C2.62009227 103.79426404 0.01359761 103.82895184 -2.64453125 103.78515625 C-3.59287842 103.77492432 -4.54122559 103.76469238 -5.51831055 103.75415039 C-17.21865777 103.40872741 -30.49318487 101.38694582 -39.45703125 93.2109375 C-47.03618157 84.28087382 -50.66225188 69.83755109 -51.14453125 58.22265625 C-51.19609375 57.06507813 -51.24765625 55.9075 -51.30078125 54.71484375 C-51.80092279 37.85322554 -48.64551124 19.30372584 -37.14453125 6.22265625 C-27.52894973 -1.81915203 -11.90339344 -5.64951344 0 0 Z " fill="#D9FCD2" transform="translate(1112.14453125,678.77734375)"/>
<path d="M0 0 C9.33030683 4.86549743 13.31875333 13.63582678 16.3762207 23.28979492 C22.58178863 44.03765185 21.8910797 67.08803823 13 87 C9.20277126 93.83501173 4.39935311 97.99528109 -3.01416016 100.21899414 C-3.7519873 100.41485107 -4.48981445 100.61070801 -5.25 100.8125 C-6.02778809 101.02189209 -6.80557617 101.23128418 -7.60693359 101.44702148 C-13.28085939 102.84642278 -18.78532858 103.4956663 -24.625 103.5625 C-25.3459082 103.57708252 -26.06681641 103.59166504 -26.80957031 103.60668945 C-32.90493517 103.49001484 -38.0046375 101.52698409 -42.68310547 97.58007812 C-50.22119579 89.67788559 -51.66600634 79.50469209 -51.4375 69 C-51.42356201 67.91348145 -51.40962402 66.82696289 -51.39526367 65.70751953 C-50.89902464 43.69519681 -46.59831585 20.51851451 -31.08984375 3.87890625 C-22.02536255 -4.27065536 -10.74285098 -4.86877833 0 0 Z " fill="#D9FCD2" transform="translate(880,673)"/>
<path d="M0 0 C1.85915108 1.387817 3.70394864 2.789371 5.53125 4.21875 C5.88316406 3.64125 6.23507812 3.06375 6.59765625 2.46875 C8.11879819 0.18107962 9.58912853 -1.83488809 11.53125 -3.78125 C15.21652513 -4.46833519 17.17468197 -4.5251744 20.46875 -2.71875 C22.22503173 0.48388139 21.99774427 2.60341944 21.53125 6.21875 C20.32701241 8.62317052 19.00120383 10.85673372 17.52734375 13.10546875 C16.28928906 15.73208673 16.64664642 16.51164227 17.53125 19.21875 C18.14064407 20.45638366 18.7972115 21.67159901 19.4921875 22.86328125 C19.88148438 23.54068359 20.27078125 24.21808594 20.671875 24.91601562 C21.28289062 25.96305664 21.28289062 25.96305664 21.90625 27.03125 C24.79622995 31.99548975 27.37217012 36.89069804 29.53125 42.21875 C30.46066406 42.03957031 31.39007812 41.86039063 32.34765625 41.67578125 C44.85652175 39.52357811 44.85652175 39.52357811 50.53125 43.21875 C52.09555248 46.34735495 51.88752284 48.77477925 51.53125 52.21875 C48.0328956 56.26372228 43.66076533 57.44371389 38.53125 58.21875 C37.21125 58.21875 35.89125 58.21875 34.53125 58.21875 C34.73621094 59.05277344 34.94117188 59.88679687 35.15234375 60.74609375 C37.40324114 70.14816754 38.60387283 78.80876749 38.78125 88.46875 C38.81351685 89.49802612 38.81351685 89.49802612 38.84643555 90.5480957 C38.8748202 94.93272083 38.41409101 97.84588966 35.53125 101.21875 C33.33984375 101.9609375 33.33984375 101.9609375 30.96875 102.09375 C30.18371094 102.15304687 29.39867187 102.21234375 28.58984375 102.2734375 C26.53125 102.21875 26.53125 102.21875 24.53125 101.21875 C24.53125 100.55875 24.53125 99.89875 24.53125 99.21875 C23.87125 99.21875 23.21125 99.21875 22.53125 99.21875 C21.26703027 96.69031054 21.20320659 94.60630388 20.953125 91.78515625 C19.14341974 72.77019701 16.59042512 55.26342022 7.53125 38.21875 C7.01949219 37.21585938 6.50773437 36.21296875 5.98046875 35.1796875 C-3.1412015 18.32963316 -16.97810972 6.64943802 -35.12890625 0.6015625 C-40.62170211 -1.00683372 -45.77457702 -1.22802529 -51.46875 -1.15625 C-52.38914062 -1.16785156 -53.30953125 -1.17945313 -54.2578125 -1.19140625 C-67.37274325 -1.13599105 -76.396274 3.51789835 -85.84765625 12.47265625 C-95.77672895 22.95430343 -102.22024829 35.11948673 -108.01928711 48.19848633 C-108.41124268 49.06497803 -108.80319824 49.93146973 -109.20703125 50.82421875 C-109.54774658 51.59918701 -109.88846191 52.37415527 -110.23950195 53.17260742 C-111.68328239 55.5758495 -113.08650272 56.76029506 -115.46875 58.21875 C-119.07236708 58.74427749 -120.79051494 58.63612542 -123.90625 56.71875 C-126.13087463 53.15935059 -125.2580961 50.14906352 -124.46875 46.21875 C-123.68854853 43.62437765 -122.88056552 41.17116618 -121.90625 38.65625 C-121.64376465 37.97224121 -121.3812793 37.28823242 -121.11083984 36.58349609 C-116.55296224 25.06314962 -110.83194137 14.44763216 -102.46875 5.21875 C-101.71980469 4.37699219 -100.97085937 3.53523437 -100.19921875 2.66796875 C-72.35364438 -26.97699654 -30.59847795 -22.07738282 0 0 Z " fill="#010101" transform="translate(1146.46875,652.78125)"/>
<path d="M0 0 C15.11919406 12.63693831 24.29580647 30.46335978 30 49.0625 C30.22010742 49.76479736 30.44021484 50.46709473 30.66699219 51.19067383 C31.88904024 55.44993092 32.31841451 58.73416843 31 63 C28 65 28 65 24.5 64.9375 C21 64 21 64 19.484375 61.91015625 C17.74630672 58.50262765 16.23087606 55.02396006 14.75 51.5 C7.61639849 34.96215458 -1.4564526 15.94461292 -18.375 7.5 C-30.20683338 3.32733149 -44.64477701 5.09458415 -55.7578125 10.2890625 C-73.84574296 19.50552843 -84.40300376 36.97418407 -91.1875 55.625 C-95.3938453 69.29110897 -97.467131 83.22585638 -98.14111328 97.4855957 C-98.56370076 104.3788282 -98.56370076 104.3788282 -100.84375 107.625 C-104.05630509 109.67358585 -106.27828702 109.53167328 -110 109 C-112.375 107.5625 -112.375 107.5625 -114 105 C-115.42169347 98.51475247 -114.89056115 92.10049038 -114.1875 85.5625 C-114.10435547 84.68529297 -114.02121094 83.80808594 -113.93554688 82.90429688 C-113.32411963 76.8480431 -112.29566196 70.94597738 -111 65 C-112.216875 64.896875 -113.43375 64.79375 -114.6875 64.6875 C-119.48876545 64.09265295 -122.57013629 62.42986371 -126 59 C-126.41652031 55.25131724 -126.4979164 52.88266999 -124.625 49.5625 C-120.54482256 47.13382295 -116.63094713 47.49030456 -112 48 C-108.375 49 -108.375 49 -106 50 C-105.67 48.845 -105.34 47.69 -105 46.5 C-103.1821587 40.90390032 -100.43828352 35.81253478 -97.60546875 30.67382812 C-96.04389512 27.72066766 -94.96319683 25.60768017 -95.16796875 22.2265625 C-95.87877732 20.32439873 -96.70938266 18.46773346 -97.5625 16.625 C-99.11044636 12.7214831 -99.47960988 10.15661898 -99 6 C-97.875 4.0625 -97.875 4.0625 -96 3 C-93.1875 2.3125 -93.1875 2.3125 -90 3 C-87.64845179 5.44752977 -85.80487627 8.13267883 -84 11 C-82.700625 9.5459375 -82.700625 9.5459375 -81.375 8.0625 C-59.62464147 -13.46948144 -25.19180442 -18.12457338 0 0 Z " fill="#010101" transform="translate(896,642)"/>
<path d="M0 0 C20.65607398 16.29124883 33.09921864 39.56770358 36.45751953 65.53808594 C37.43542218 74.01324224 38.25215947 82.50149881 39 91 C39.66 91 40.32 91 41 91 C41.58609318 100.18994106 36.83637818 108.86245006 31.125 115.9375 C25.72985677 121.6203842 19.51427435 126.59543221 12 129 C11.01 128.67 10.02 128.34 9 128 C9.43570312 127.63390625 9.87140625 127.2678125 10.3203125 126.890625 C19.27539032 118.74964516 24.34691836 106.8026907 25.14794922 94.77929688 C26.22635502 68.18935095 21.94820964 38.88920766 3.984375 18.10546875 C-3.70237762 9.94964265 -13.80109183 2.12024544 -25.46484375 1.7265625 C-41.24038756 1.31206498 -52.32179379 3.92898163 -64.0546875 14.92578125 C-78.40771874 29.73919273 -80.16199676 49.76478132 -80.25 69.3125 C-80.270625 70.44623047 -80.29125 71.57996094 -80.3125 72.74804688 C-80.38938727 89.61519075 -75.25328216 111.31949776 -63.21875 123.85546875 C-61.46488051 125.37959153 -61.46488051 125.37959153 -59 127 C-61.70538976 128.06420545 -62.86465534 128.04564409 -65.6640625 127.1015625 C-79.88343433 120.01063565 -88.89679778 110.36050681 -94.75 95.5625 C-98.74755412 83.49067815 -100.20073438 70.73881652 -100.5 58.0625 C-100.5306958 57.32354492 -100.5613916 56.58458984 -100.59301758 55.82324219 C-100.59434982 52.00238256 -100.28585419 50.31788539 -97.69921875 47.44140625 C-96.80847656 46.63574219 -95.91773438 45.83007812 -95 45 C-93.65610875 42.62462509 -92.45130926 40.33939362 -91.3125 37.875 C-89.68689055 34.45303876 -88.10865662 31.16298492 -86 28 C-85.70222656 27.23042969 -85.40445312 26.46085938 -85.09765625 25.66796875 C-79.14232069 11.19290048 -66.84659629 -1.30811932 -52.95703125 -8.23828125 C-36.10773798 -14.79638941 -14.42494204 -9.6595594 0 0 Z " fill="#FAFAFA" transform="translate(1130,661)"/>
<path d="M0 0 C16.81088616 12.6363708 26.0454526 31.71711726 33.53515625 50.9375 C34.72476644 54.06567147 34.72476644 54.06567147 37.12890625 55.5 C39 57 39 57 39.71484375 60.125 C40.34611077 71.11126119 39.18969199 81.23154593 37 92 C36.85933105 92.7228418 36.71866211 93.44568359 36.57373047 94.19042969 C34.00685551 107.06941991 29.71859365 119.38919822 18.8671875 127.6171875 C18.20976563 128.03226563 17.55234375 128.44734375 16.875 128.875 C16.21242188 129.30554688 15.54984375 129.73609375 14.8671875 130.1796875 C13 131 13 131 10 130 C10.75152344 129.319375 11.50304687 128.63875 12.27734375 127.9375 C15.18350015 125.0221307 16.90694686 121.73622644 18.5625 118 C18.85987061 117.34209473 19.15724121 116.68418945 19.46362305 116.00634766 C28.9978036 94.40177498 30.68850921 70.08869629 26 47 C25.80535156 45.98035156 25.61070312 44.96070313 25.41015625 43.91015625 C22.61511026 31.0595602 16.5860613 19.26631842 5.7734375 11.375 C-2.73042967 6.3267679 -12.11637746 3.71696198 -22 5 C-27.92593289 6.66747029 -33.07307283 9.30480462 -38 13 C-38.969375 13.70125 -39.93875 14.4025 -40.9375 15.125 C-57.67074326 29.54870708 -63.23838509 55.00655363 -65 76 C-66.03353598 94.01610777 -66.77918727 113.05917814 -55 128 C-52.81133759 130.23139117 -50.51750877 132.15301415 -48 134 C-46.7934375 134.928125 -46.7934375 134.928125 -45.5625 135.875 C-44.7890625 136.431875 -44.7890625 136.431875 -44 137 C-57.83488994 135.31453118 -68.49416088 130.22873756 -77.90625 119.91015625 C-87.14014555 107.75672019 -86.20478163 89.5211611 -84.4609375 75.08984375 C-81.49560156 53.67400684 -75.3153865 34.20579508 -62 17 C-61.02740234 15.73349609 -61.02740234 15.73349609 -60.03515625 14.44140625 C-47.26073394 -1.04986661 -18.51251508 -12.48736262 0 0 Z " fill="#F9F9F9" transform="translate(882,651)"/>
<path d="M0 0 C16.38700956 10.79817682 23.01881867 27.95557663 27.15625 46.33984375 C27.77071915 49.75203559 28.00156122 52.77054527 27.85546875 56.22265625 C26.86546875 55.17078125 26.86546875 55.17078125 25.85546875 54.09765625 C14.65175297 42.98835381 2.23052005 39.44238892 -13.14453125 38.22265625 C-13.20060547 37.11857422 -13.20060547 37.11857422 -13.2578125 35.9921875 C-13.73429119 28.64705008 -13.73429119 28.64705008 -17.14453125 22.22265625 C-17.14453125 21.56265625 -17.14453125 20.90265625 -17.14453125 20.22265625 C-21.75732872 18.68505709 -26.33299165 18.55899562 -31.14453125 19.22265625 C-34.22645517 22.01106361 -36.06145766 24.61249461 -36.27734375 28.796875 C-36.27476563 29.82425781 -36.2721875 30.85164062 -36.26953125 31.91015625 C-36.27210937 32.99296875 -36.2746875 34.07578125 -36.27734375 35.19140625 C-36.24901432 38.3707625 -36.24901432 38.3707625 -35.14453125 41.91015625 C-35.14453125 46.74492222 -37.80020741 48.47627409 -41.06640625 51.828125 C-45.80287467 57.28574744 -47.52966253 64.15166595 -48.14453125 71.22265625 C-48.47453125 71.22265625 -48.80453125 71.22265625 -49.14453125 71.22265625 C-53.22582334 49.94163323 -51.77382469 29.26060934 -40.39453125 10.34765625 C-32.07222047 -1.47088303 -13.25079694 -6.28900958 0 0 Z " fill="#86BC7C" transform="translate(1112.14453125,678.77734375)"/>
<path d="M0 0 C9.33030683 4.86549743 13.31875333 13.63582678 16.3762207 23.28979492 C20.15353797 35.91897554 20.23240672 47.93357772 20 61 C17.78402303 58.85104763 16.259925 56.88303513 14.75 54.1875 C10.40465471 47.20938668 6.08687338 44.24909184 -1.75 41.75 C-7.59249018 39.69777519 -7.59249018 39.69777519 -9.3984375 36.60546875 C-10.125 33.9375 -10.125 33.9375 -10.5078125 31.40234375 C-11.09115899 28.55505729 -12.029532 27.11660318 -14 25 C-17.63782632 23.78739123 -20.17735999 23.60455448 -24 24 C-27.67569079 26.85887062 -29.77702516 29.51575894 -31 34 C-30.98324219 34.68320312 -30.96648438 35.36640625 -30.94921875 36.0703125 C-30.93592406 38.68493561 -31.06908079 40.5430534 -32 43 C-34.56513329 45.06451142 -37.24285218 46.56530271 -40.12109375 48.16015625 C-44.49160829 50.95325306 -47.16105566 54.72704965 -50 59 C-53.76679866 47.69960402 -46.22993608 29.17559664 -41.625 18.9453125 C-33.09535989 2.21052945 -18.60733738 -8.43305015 0 0 Z " fill="#85BB7B" transform="translate(880,673)"/>
<path d="M0 0 C4.11691106 0.07005215 5.33570284 0.17903678 8.75 2.6875 C12.96033493 8.66345925 13.31918334 13.19820843 12.6875 20.4375 C11.78640401 24.93540772 10.23876752 28.27679456 6.875 31.4375 C3.30379033 33.67825901 1.8064505 34.2262352 -2.3125 33.4375 C-6.74891688 31.00803361 -8.73527287 27.63458129 -10.58203125 23.07421875 C-12.0619896 17.73212311 -12.63001875 11.63279079 -10.4765625 6.41015625 C-7.49507266 1.82583541 -5.40645834 0.12437049 0 0 Z " fill="#FEFEFE" transform="translate(1086.3125,696.5625)"/>
<path d="M0 0 C3.75799026 1.39832196 5.39959044 3.28305606 7.3125 6.6875 C10.30178392 13.34655523 9.43798521 19.35207505 6.9765625 26.01171875 C5.50445609 29.0089274 3.92952396 30.43304532 1 32 C-2.90119917 32.6640339 -4.65034163 32.17825721 -8.1875 30.375 C-12.20140754 26.98547808 -13.77548582 23.77993221 -14.43359375 18.5625 C-14.44673927 6.57378896 -14.44673927 6.57378896 -10 2 C-6.27420911 -0.48386059 -4.41288598 -0.3804212 0 0 Z " fill="#FEFEFD" transform="translate(863,696)"/>
<path d="M0 0 C4.875 4.625 4.875 4.625 6 8 C5.01 8 4.02 8 3 8 C0.89229241 5.11165997 0 3.61537605 0 0 Z " fill="#D9D9D9" transform="translate(898,670)"/>
</svg>
